<svg xmlns="http://www.w3.org/2000/svg" viewBox="0 0 40.5 40.5"><defs><style>.cls-1{fill:#31ae48;}</style></defs><title>Asset 13</title><g id="Layer_2" data-name="Layer 2"><g id="Layer_1-2" data-name="Layer 1"><path class="cls-1" d="M20.25,2.26a18,18,0,1,1-18,18,18,18,0,0,1,18-18m0-2.26A20.25,20.25,0,1,0,40.5,20.25,20.25,20.25,0,0,0,20.25,0Z"/><path class="cls-1" d="M28.31,14a.46.46,0,0,0-.54-.44,10.07,10.07,0,0,0-2.18.75,7.74,7.74,0,0,0,1.7-5.19.46.46,0,0,0-.54-.44,9.43,9.43,0,0,0-4.26,2.23,7.41,7.41,0,0,0-1.88-7,.46.46,0,0,0-.32-.16.45.45,0,0,0-.34.12,7.19,7.19,0,0,0-1.79,6.81,9.44,9.44,0,0,0-4.05-2.19.46.46,0,0,0-.54.43,7.73,7.73,0,0,0,1.57,5.23,10,10,0,0,0-2.16-.8.45.45,0,0,0-.37.09.46.46,0,0,0-.18.34C12.08,21.61,20,23.64,20,23.66h.1l.1,0,.11,0h.1C20.54,23.64,28.47,21.81,28.31,14Zm-8.18,3.47h.19l.09,0h.1a9.43,9.43,0,0,0,1.59-.56,9,9,0,0,0-1.82,3.47,9,9,0,0,0-1.73-3.51A9.32,9.32,0,0,0,20.13,17.45Zm6.24-7.76c-.21,4.54-4,6.22-5.47,6.71A7.34,7.34,0,0,1,26.38,9.68ZM20.25,4.9a6.43,6.43,0,0,1,.16,8.26C17.41,9.06,19.39,5.94,20.25,4.9Zm-.48,11.47c-1.46-.54-5.2-2.35-5.3-6.83A7.44,7.44,0,0,1,19.77,16.37Zm-6.44-2a8.78,8.78,0,0,1,6.35,8.2C18,22,13.4,19.86,13.33,14.39Zm7.5,8.22a8.68,8.68,0,0,1,6.56-8.05C27.2,20.1,22.51,22.08,20.84,22.61Z"/><path class="cls-1" d="M7.3,27h0a2.28,2.28,0,0,1,2.3-2.34,2.38,2.38,0,0,1,1.5.44.5.5,0,0,1,.2.4.48.48,0,0,1-.48.49.46.46,0,0,1-.29-.1,1.5,1.5,0,0,0-1-.31,1.34,1.34,0,0,0-1.26,1.41h0a1.34,1.34,0,0,0,1.33,1.43,1.5,1.5,0,0,0,.91-.27v-.65H9.89A.42.42,0,0,1,9.47,27a.43.43,0,0,1,.42-.43H11a.49.49,0,0,1,.48.5v1.1a.68.68,0,0,1-.34.63,2.85,2.85,0,0,1-1.53.45A2.23,2.23,0,0,1,7.3,27Z"/><path class="cls-1" d="M12.4,25.15a.48.48,0,1,1,1,0v3.16h1.78a.45.45,0,0,1,0,.9H12.88a.49.49,0,0,1-.48-.5Z"/><path class="cls-1" d="M16.08,27.28V25.15a.48.48,0,1,1,1,0v2.1c0,.74.36,1.12.94,1.12s.95-.37.95-1.08V25.15a.48.48,0,1,1,1,0v2.09a1.79,1.79,0,0,1-1.92,2A1.77,1.77,0,0,1,16.08,27.28Z"/><path class="cls-1" d="M21.9,25.61H21a.46.46,0,0,1,0-.92h2.82a.46.46,0,0,1,0,.92h-.93v3.14a.48.48,0,1,1-1,0Z"/><path class="cls-1" d="M24.93,28.72V25.19a.49.49,0,0,1,.48-.5h2.43a.44.44,0,0,1,.43.45.43.43,0,0,1-.43.44h-2v.92h1.67a.44.44,0,0,1,.43.45.43.43,0,0,1-.43.44H25.89v.95h2a.44.44,0,0,1,.43.45.43.43,0,0,1-.43.44H25.41A.49.49,0,0,1,24.93,28.72Z"/><path class="cls-1" d="M29.12,25.17a.49.49,0,0,1,.48-.5h.1a.59.59,0,0,1,.5.29l1.86,2.52V25.15a.48.48,0,1,1,1,0v3.6a.49.49,0,0,1-.48.5h0a.59.59,0,0,1-.5-.29l-1.93-2.61v2.42a.48.48,0,1,1-1,0Z"/><path class="cls-1" d="M12.27,30.9a.49.49,0,0,1,.48-.5h2.45a.45.45,0,0,1,0,.9h-2v1h1.69a.45.45,0,0,1,0,.9H13.24v1.29a.48.48,0,1,1-1,0Z"/><path class="cls-1" d="M16.38,30.9a.49.49,0,0,1,.48-.5h1.52a1.71,1.71,0,0,1,1.28.46,1.44,1.44,0,0,1,.38,1h0a1.38,1.38,0,0,1-.88,1.37l.67.84a.59.59,0,0,1,.16.38.45.45,0,0,1-.46.46.57.57,0,0,1-.48-.26l-.94-1.23h-.77v1a.48.48,0,1,1-1,0Zm1.94,1.7c.47,0,.74-.26.74-.64h0c0-.43-.29-.65-.76-.65h-1v1.3Z"/><path class="cls-1" d="M20.9,34.43V30.9a.49.49,0,0,1,.48-.5h2.43a.44.44,0,0,1,.43.45.43.43,0,0,1-.43.44h-2v.92h1.67a.44.44,0,0,1,.43.45.43.43,0,0,1-.43.44H21.86V34h2a.44.44,0,0,1,.43.45.43.43,0,0,1-.43.44H21.38A.49.49,0,0,1,20.9,34.43Z"/><path class="cls-1" d="M25.09,34.43V30.9a.49.49,0,0,1,.48-.5H28a.44.44,0,0,1,.43.45.43.43,0,0,1-.43.44H26v.92h1.67a.44.44,0,0,1,.43.45.43.43,0,0,1-.43.44H26V34h2a.44.44,0,0,1,.43.45.43.43,0,0,1-.43.44H25.57A.49.49,0,0,1,25.09,34.43Z"/></g></g></svg>