<svg xmlns="http://www.w3.org/2000/svg" width="400" height="400" viewBox="0 0 0 0 400 400"><g fill-rule="evenodd"><path d="M147.377 6.167c-.427.312-.686.657-.576.766.109.109.624-.146 1.143-.567 1.087-.881.599-1.051-.567-.199m104.679.199c.519.421 1.034.676 1.143.567.235-.233-1.184-1.333-1.72-1.333-.202 0 .057.345.577.766M112.202 20.398c-.399.441-.54.802-.313.802.503 0 1.501-1.143 1.232-1.412-.106-.106-.519.168-.919.61m174.598-.509c0 .503 1.143 1.501 1.412 1.232.106-.106-.168-.519-.61-.919-.441-.399-.802-.54-.802-.313M88.984 33.627c-.145.234-.168.522-.051.64.287.286 1.067-.219 1.067-.691 0-.511-.691-.477-1.016.051m221.091-.002c.096.289.411.604.7.7.3.1.45-.05.35-.35-.096-.289-.411-.604-.7-.7-.3-.1-.45.05-.35.35M42.4 75.2c-.44.44-.797 1.115-.794 1.5.004.515.138.438.508-.292.276-.546.948-1.218 1.494-1.494.73-.37.807-.504.292-.508-.385-.003-1.06.354-1.5.794m-9.016 14.027c-.145.234-.168.522-.051.64.287.286 1.067-.219 1.067-.691 0-.511-.691-.477-1.016.051m332.291-.002c.096.289.411.604.7.7.3.1.45-.05.35-.35-.096-.289-.411-.604-.7-.7-.3-.1-.45.05-.35.35m-70.47 11.223c-.548.218-3.573.826-6.723 1.352-4.754.792-6.035 1.158-7.535 2.152-.995.659-2.333 1.313-2.973 1.454-.64.14-1.534.725-1.985 1.299-.451.573-1.335 1.356-1.963 1.738-.653.397-1.347 1.31-1.617 2.129-.26.789-.827 1.624-1.26 1.855-2.462 1.318-3.471 15.117-1.288 17.618 2.112 2.418 15.266 1.507 18.438-1.278.731-.642 1.481-1.167 1.667-1.167.695 0 4.13-3.858 4.815-5.406.39-.883.995-1.842 1.344-2.132.894-.742 1.358-2.412 2.074-7.462.343-2.42.999-5.431 1.458-6.691 1.072-2.946.8-4.06-1.247-5.104-1.77-.903-1.823-.909-3.205-.357m-42.324 8.756c-.505.211-1.495.817-2.2 1.346-.705.529-1.849 1.083-2.543 1.23-1.143.242-7.738 5.498-7.738 6.167 0 .147-.821 1.206-1.825 2.353-1.384 1.582-1.977 2.693-2.452 4.593-.345 1.379-.888 3.021-1.207 3.648-.682 1.345-.792 6.995-.159 8.179.48.897 1.429 3.729 1.821 5.437.606 2.639 3.961 5.669 6.099 5.508 2.251-.17 8.43-5.959 9.356-8.766.258-.781.988-2.158 1.622-3.06.844-1.199 1.32-2.595 1.773-5.197.34-1.957.986-4.477 1.435-5.6.887-2.221 1.609-14.743.89-15.436-.569-.548-3.872-.821-4.872-.402m-232.679 3.194c-.399.441-.54.802-.313.802.503 0 1.501-1.143 1.232-1.412-.106-.106-.519.168-.919.61m358.598-.509c0 .503 1.143 1.501 1.412 1.232.106-.106-.168-.519-.61-.919-.441-.399-.802-.54-.802-.313m-158.823 22.562c-.758.628-1.647 1.428-1.977 1.777-.33.35-1.247 1.296-2.037 2.104-.79.807-1.905 2.503-2.478 3.768-.572 1.265-1.24 2.3-1.483 2.3-2.99 0-2.912 23.047.085 25.146.439.307 1.047 1.156 1.352 1.887.644 1.54 2.268 2.161 5.661 2.165 2.267.002 6.9-3.719 6.9-5.543 0-.41.535-1.419 1.19-2.242 2.612-3.287 2.627-20.55.022-24.128-.435-.597-1.056-2.236-1.379-3.643-.67-2.908-.799-3.086-2.928-4.039l-1.552-.695-1.376 1.143m58.623 7.923c-.88.175-2.359.603-3.286.95-.928.347-3.305.928-5.282 1.292-2.473.454-4.177 1.029-5.457 1.841-1.024.649-2.38 1.284-3.015 1.411-3.047.609-9.16 7.485-9.16 10.303 0 1.567 3.16 4.833 5.065 5.236.624.132 2.215.597 3.535 1.032 1.32.436 3.12.978 4 1.206 1.647.425 5.683.138 6.409-.457.225-.184 1.69-.69 3.256-1.124 3.437-.952 4.308-1.397 6.131-3.129.772-.733 1.719-1.436 2.104-1.561s.7-.376.7-.558c0-.181.798-1.217 1.774-2.303.976-1.085 2.23-2.949 2.787-4.143.557-1.193 1.424-2.679 1.926-3.301 1.033-1.279 1.294-5.448.397-6.345-.579-.579-9.427-.84-11.884-.35m-84.183 17.308c-.43.728-1.33 1.649-2 2.044-.669.396-1.217.957-1.217 1.248 0 .291-.682 1.232-1.516 2.091-.833.859-1.75 2.186-2.036 2.949-.847 2.254-1.193 2.931-2.036 3.986-2.032 2.541-2.116 17.107-.115 19.92.387.544 1.153 1.84 1.703 2.88 2.63 4.973 6.339 5.88 10.249 2.505 1.179-1.018 2.248-2.181 2.376-2.585.129-.404.74-1.226 1.36-1.827 3.468-3.366 3.172-24.879-.404-29.318-.454-.564-1.052-1.914-1.328-3l-.501-1.975-1.877-.122c-1.753-.114-1.927-.035-2.658 1.204m44.266 11.534c-1.055.178-2.765.864-3.8 1.525-1.036.661-2.389 1.327-3.008 1.48-.618.153-1.506.794-1.972 1.425-.466.63-1.175 1.25-1.576 1.377-2.634.836-2.715 8.105-.103 9.328.647.303 1.626.966 2.176 1.474 3.783 3.495 20.555 3.352 26.2-.223 1.32-.836 2.789-1.635 3.264-1.777.476-.141 1.152-.695 1.504-1.232.352-.537 1.175-1.253 1.829-1.591.654-.339 1.471-1.16 1.815-1.826.345-.666 1.068-1.412 1.607-1.658 2.029-.924-.83-4.319-4.309-5.117-1.16-.266-3.19-.994-4.51-1.616-3.786-1.786-13.219-2.56-19.117-1.569m-68.198 13.127c-1.033.418-2.016 1.189-2.472 1.94-.417.685-1.133 1.365-1.592 1.51-.459.146-1.216 1.017-1.682 1.936-.465.919-1.355 2.254-1.976 2.966-.621.712-1.323 2.062-1.56 3-.631 2.495-1.612 5.063-2.035 5.324-1.939 1.199 1.416 20.075 3.697 20.801.366.116 1.32.732 2.121 1.369 2.17 1.724 3.554 1.901 5.048.644.675-.568 1.444-1.033 1.708-1.033 1.044 0 4.51-4.565 5.011-6.6.271-1.1.887-2.81 1.37-3.8 1.297-2.663 1.264-10.951-.061-15-.504-1.54-1.168-4.208-1.476-5.93-.551-3.083-.666-3.304-3.5-6.746l-.886-1.075-1.715.694m43.184 12.487c-3.381.439-5.274 1.093-6.409 2.213-.518.511-1.328 1.051-1.8 1.199-1.913.603-5.054 4.618-5.057 6.466-.003 1.835 3.092 5.775 4.972 6.329.454.134 1.455.663 2.225 1.176 2.355 1.57 10.392 2.264 16.306 1.409 2.752-.399 10.634-3.968 11.028-4.995.125-.325.922-.946 1.772-1.379.85-.434 1.714-1.153 1.92-1.598.205-.445 1.004-1.229 1.774-1.743 2.899-1.932 2.147-4.688-1.495-5.477-1.268-.275-2.956-.921-3.751-1.435-3.245-2.098-13.803-3.162-21.485-2.165m-69.623 13.585c-.965.634-2.081 1.688-2.479 2.343-.398.655-1.086 1.385-1.529 1.622-.443.237-1.171 1.258-1.618 2.269-.448 1.011-1.33 2.426-1.962 3.146-3.176 3.618-3.053 22.467.169 25.739.645.655 1.56 1.703 2.034 2.329.82 1.083 1.013 1.137 4.055 1.137h3.194l2.065-2.098c1.136-1.154 2.261-2.684 2.5-3.4.24-.716.856-1.868 1.369-2.56 2.482-3.347 2.47-17.981-.019-22.893-.859-1.696-1.287-3.015-1.991-6.143-.524-2.326-3.392-3.065-5.788-1.491m47.154 10.756c-3.851.893-9.481 3.007-10.313 3.872-.502.522-1.421 1.213-2.043 1.534-.622.322-1.35 1.113-1.617 1.757-.267.645-.912 1.544-1.434 1.998-1.179 1.024-.857 2.607.95 4.665.653.743 1.298 1.701 1.434 2.131.175.549 1.1 1.039 3.135 1.659a192.17 192.17 0 0 1 5.147 1.653c2.51.859 11.552 1.176 12.455.437.267-.219 2.07-.879 4.007-1.468 2.223-.676 4.013-1.502 4.854-2.241.734-.644 1.971-1.437 2.75-1.763.779-.325 1.534-.961 1.678-1.413.143-.452.932-1.246 1.752-1.764 2.579-1.628 3.038-5.828.638-5.828-.266 0-1.121-.507-1.902-1.127-.819-.652-2.404-1.345-3.755-1.642a537.236 537.236 0 0 1-6.336-1.457c-4.511-1.064-9.315-1.487-11.4-1.003m-27.856 25.644c-.91.181-2.62.86-3.8 1.511-1.179.65-2.637 1.295-3.239 1.434-.602.139-1.394.709-1.759 1.267-.366.558-1.165 1.272-1.776 1.588-2.787 1.442-2.743 7.406.069 9.304.749.505 1.631 1.256 1.961 1.669 2.485 3.106 22.654 3.012 25.934-.122.586-.56 1.805-1.349 2.708-1.752 1.677-.749 2.962-1.867 7.266-6.322l1.309-1.354-1.821-1.821c-1.468-1.468-2.354-1.969-4.568-2.582-1.51-.419-3.576-1.129-4.591-1.577-3.331-1.474-13.07-2.158-17.693-1.243m-35.731 15.622c-1.215.449-2.076 1.116-2.686 2.08-.495.781-1.267 1.537-1.717 1.68-.45.143-1.09.784-1.421 1.425-.331.64-1.104 1.424-1.718 1.741-.613.317-1.322 1.032-1.576 1.588-.253.556-.995 1.287-1.649 1.625-.654.339-1.306.984-1.449 1.435-.143.45-.952 1.256-1.797 1.789-.845.533-1.654 1.339-1.797 1.789-.143.451-.784 1.091-1.425 1.422-.64.331-1.446 1.147-1.79 1.813-.345.666-1.08 1.417-1.635 1.67-.554.253-1.22.863-1.48 1.357-.26.493-1.103 1.321-1.873 1.838-1.058.712-1.487 1.354-1.757 2.629l-.358 1.688 4.251 4.251 4.25 4.25 1.707-.228c1.17-.157 1.896-.515 2.307-1.141.495-.751 2.006-2.302 6.038-6.196.194-.188 3.736-3.762 7.871-7.942 4.134-4.18 7.991-7.909 8.569-8.286.579-.378 1.17-1.221 1.313-1.873.143-.652.525-1.405.848-1.673.512-.425.491-.596-.159-1.328-.411-.462-1.051-1.668-1.423-2.68-1.331-3.618-6.05-5.978-9.444-4.723M20.202 287.602c.4.442.813.716.919.61.269-.269-.729-1.412-1.232-1.412-.227 0-.086.361.313.802m358.99-.192c-.773.931-.221 1.107.606.192.399-.441.54-.802.313-.802-.227 0-.641.274-.919.61M33.275 310.425c.096.289.411.604.7.7.3.1.45-.05.35-.35-.096-.289-.411-.604-.7-.7-.3-.1-.45.05-.35.35m332.509.002c-.145.234-.168.522-.051.64.287.286 1.067-.219 1.067-.691 0-.511-.691-.477-1.016.051M74.412 356.671c-.016.61 1.107 1.733 1.717 1.717.259-.007.162-.193-.216-.413-.378-.22-.868-.71-1.088-1.088-.22-.378-.406-.475-.413-.216m250.102.771c-.487.527-.725.958-.528.958.47 0 1.614-1.155 1.614-1.629 0-.483-.042-.458-1.086.671m-235.639 8.583c.096.289.411.604.7.7.3.1.45-.05.35-.35-.096-.289-.411-.604-.7-.7-.3-.1-.45.05-.35.35m221.309.002c-.145.234-.168.522-.051.64.287.286 1.067-.219 1.067-.691 0-.511-.691-.477-1.016.051m-197.982 13.575c.4.442.813.716.919.61.269-.269-.729-1.412-1.232-1.412-.227 0-.086.361.313.802m174.99-.192c-.773.931-.221 1.107.606.192.399-.441.54-.802.313-.802-.227 0-.641.274-.919.61M146.8 393.167c0 .405 1.556 1.415 1.795 1.165.07-.072-.306-.455-.834-.851-.529-.395-.961-.536-.961-.314m105.256.467c-.52.421-.779.766-.577.766.536 0 1.955-1.1 1.72-1.333-.109-.109-.624.146-1.143.567" fill="#faf9f6"/><path d="M289.2 97.466c-2.286.361-2.842.602-4.006 1.74-1.02.997-1.545 1.194-3.182 1.194-2.63 0-3.849.525-4.603 1.983-.387.748-.942 1.217-1.439 1.217-2.111 0-4.824 2.583-5.358 5.1-.187.883-.507 1.3-.995 1.3-1.04 0-1.673.946-2.075 3.104-.195 1.043-.524 1.954-.733 2.024-1.688.572-2.907 6.558-2.24 11.002.521 3.474 5.176 8.389 8.631 9.112 3.909.817 12-.044 12-1.278 0-.674 1.318-1.564 2.329-1.573 1.553-.013 4.354-1.391 4.636-2.282.134-.421.882-1.07 1.664-1.442 1.014-.484 1.649-1.194 2.219-2.482.439-.993 1.325-2.344 1.969-3.003 1.237-1.265 1.389-1.704 1.777-5.117.184-1.617.494-2.351 1.276-3.024 2.018-1.736 2.607-15.001.748-16.859-.958-.959-8.397-1.38-12.618-.716m11.608 1.26c1.803 1.46 1.665 9.414-.237 13.622-.534 1.182-1.158 3.32-1.387 4.751-.436 2.731-1.326 4.901-2.008 4.901-.223 0-.743.791-1.157 1.757-.811 1.89-4.078 5.443-5.007 5.443-.312 0-.826.37-1.143.823-.507.724-2.331 1.554-8.469 3.856-2.683 1.006-7.045.522-10.2-1.132-4.836-2.535-7.329-10.547-4.538-14.588.44-.637 1.033-2.235 1.318-3.55.398-1.834.833-2.679 1.869-3.628.743-.681 1.351-1.466 1.351-1.744 0-.743 4.108-4.693 5.235-5.033.531-.161 1.509-.807 2.173-1.437.919-.872 1.938-1.285 4.266-1.73 1.682-.322 3.928-.959 4.992-1.416 4.002-1.719 11.301-2.224 12.942-.895m-45.608 7.463c-.99.294-2.826.653-4.079.799-2.105.244-3.756 1.075-4.921 2.474-.22.264-1.178.684-2.129.932-1.349.353-1.843.723-2.246 1.683-.304.723-1.028 1.445-1.755 1.75-.777.327-1.451 1.031-1.811 1.893-.373.893-.932 1.462-1.602 1.63-.972.244-2.257 3.051-2.257 4.931 0 .295-.441.737-.98.983-1.511.688-1.82 2.309-1.82 9.536 0 7.144.314 8.85 1.747 9.503.667.304 1.037.993 1.399 2.61.484 2.165 1.162 3.12 2.573 3.621.395.14.902.781 1.126 1.423.906 2.598 7.342 2.604 8.166.007.147-.46.877-1.092 1.624-1.404.907-.379 1.551-1.031 1.941-1.964.321-.768.834-1.396 1.142-1.396.854 0 1.875-1.336 2.333-3.053.228-.854 1.013-2.108 1.752-2.8 1.194-1.118 1.37-1.56 1.619-4.089.229-2.328.42-2.881 1.065-3.086 1.776-.563 2.062-2.442 2.088-13.699l.025-10.527-1.4-1.162c-.77-.639-1.49-1.155-1.6-1.145-.11.009-1.01.257-2 .55m3.611 2.111c1.674 2.118.827 19.528-1.056 21.719-.292.34-.807 1.927-1.143 3.526-.707 3.36-1.124 4.273-2.221 4.86-.435.233-.791.696-.791 1.029 0 2.856-7.663 10.554-11.043 11.095-2.112.337-6.53-3.838-7.357-6.953-.259-.977-.82-2.152-1.245-2.612-1.198-1.294-1.555-3.167-1.555-8.164s.357-6.87 1.555-8.164c.425-.46.977-1.604 1.226-2.542.403-1.516 2.436-4.358 4.791-6.694 3.641-3.612 5.582-5 6.992-5 .332 0 1.03-.46 1.551-1.022 2.148-2.316 8.77-3.009 10.296-1.078m-39.28 22.115c-.368.214-.779.893-.914 1.509-.18.82-.589 1.22-1.532 1.497-.951.28-1.382.708-1.657 1.642-.272.922-.704 1.357-1.6 1.612-.977.278-1.338.695-1.766 2.037-.296.928-.763 1.688-1.038 1.688-.984 0-1.86 1.537-2.308 4.048-.326 1.834-.722 2.777-1.405 3.352-2.603 2.189-2.43 15.189.234 17.562.524.467.856 1.242.857 2 .004 2.11.767 4.126 1.824 4.818.556.364 1.213 1.107 1.461 1.651.247.543.914 1.1 1.482 1.237.567.137 1.498.798 2.069 1.469 1.113 1.307 2.652 1.575 5.562.968 2.166-.452 2.683.091 1.818 1.913-1.019 2.148-.635 4.46.959 5.771.677.556 1.228 1.281 1.225 1.611-.012 1.38 4.071 4.352 6.374 4.639 1.48.185 2.507.579 3.202 1.229 1.482 1.388 2.351 1.532 9.222 1.532 6.995 0 8.245-.221 8.859-1.569.368-.808.824-.989 3.086-1.23 3.249-.347 3.854-.649 4.392-2.193.316-.906.669-1.208 1.414-1.208 1.16 0 2.249-.954 2.249-1.971 0-.462.458-.844 1.3-1.085.932-.266 1.499-.792 2.003-1.858.459-.969.976-1.486 1.486-1.486 1.227 0 1.712-1.417 1.537-4.501-.194-3.444-.866-4.139-4.38-4.537-2.041-.231-2.463-.417-2.77-1.224-.502-1.322-1.898-1.752-6.896-2.126-3.096-.232-4.525-.51-5.046-.981-1.787-1.617-9.363-1.702-10.943-.122-.595.595-1.629.886-3.99 1.124-3.138.317-4.701 1.042-4.701 2.182 0 .598-3.53 1.822-3.834 1.329-.399-.644.306-2.129 1.705-3.589 1.244-1.299 1.412-1.749 1.674-4.486.232-2.436.486-3.251 1.273-4.089 1.467-1.563 1.479-8.756.018-11.18-.785-1.302-1.02-2.404-1.264-5.914-.31-4.476-.855-6.005-2.307-6.465-.553-.176-.816-.751-.982-2.149-.319-2.692-1.005-3.967-2.398-4.452-1.5-.523-4.662-.526-5.554-.005m3.751.801c1.866.518 2.9 1.824 3.732 4.712.36 1.25 1.007 2.652 1.437 3.115 3.242 3.496 3.352 24.944.146 28.518-.71.791-1.424 1.868-1.588 2.392-.397 1.277-3.799 4.672-5.027 5.017-.54.152-1.645.558-2.456.902-1.382.587-1.555.576-2.8-.172-.729-.438-1.819-.913-2.421-1.055-.602-.142-1.404-.75-1.782-1.351-.377-.602-1.247-1.734-1.933-2.516-.966-1.102-1.351-2.052-1.709-4.219-.254-1.539-.767-3.41-1.141-4.158-1.105-2.216-1.263-9.136-.252-11.08.435-.836 1.095-2.891 1.466-4.565.464-2.091.974-3.325 1.629-3.94.524-.492 1.335-1.785 1.803-2.872.528-1.227 1.235-2.153 1.862-2.439.557-.253 1.277-.974 1.601-1.601.325-.626 1.095-1.447 1.712-1.822.618-.376 1.615-1.268 2.217-1.982 1.207-1.436 1.37-1.477 3.504-.884m49.461 8.799c-3.013.352-4.183.852-4.527 1.934-.191.602-.801.805-3.102 1.032-2.54.25-3.003.43-4.089 1.587-.766.816-1.949 1.501-3.159 1.83-1.521.413-2.134.842-2.873 2.013-.517.819-1.373 1.598-1.902 1.731-.65.163-1.168.764-1.595 1.85-.361.919-.899 1.608-1.255 1.608-2.698 0-2.644 7.01.063 8.039.515.196 1.121.888 1.348 1.537.329.945.825 1.315 2.48 1.851 1.137.369 2.518 1.088 3.068 1.597 2.894 2.678 18.007 2.605 20.712-.1.556-.556 1.748-1.221 2.649-1.478 1.229-.35 1.778-.779 2.193-1.714.368-.829.972-1.367 1.8-1.603.932-.266 1.36-.705 1.698-1.742.264-.812.761-1.446 1.2-1.53 1.145-.219 1.663-.785 2.184-2.389.262-.807 1.068-2.129 1.791-2.937.945-1.056 1.388-2.012 1.574-3.4.276-2.061.319-2.192 1.209-3.731 1.457-2.52.241-5.182-2.76-6.043-1.482-.425-14.925-.383-18.707.058m19.003 1.214c1.834 1.442 1.334 8.208-.749 10.139-.516.478-1.289 1.792-1.717 2.919-.428 1.127-1.476 2.76-2.329 3.63-.853.869-1.731 1.779-1.951 2.022-1.849 2.042-4.745 4.207-6.508 4.867-1.17.438-2.674 1.2-3.343 1.695-2.015 1.49-13.528 1.368-15.783-.168-.861-.587-2.356-1.298-3.322-1.58-2.931-.856-6.87-5.226-6.363-7.06.949-3.439 6.826-9.889 9.991-10.967.731-.249 1.893-.941 2.585-1.539.852-.737 2.051-1.226 3.73-1.522 1.361-.24 3.48-.911 4.708-1.493 4.173-1.974 18.902-2.633 21.051-.943m-98.065 15.19c-.505.203-1.097.882-1.316 1.51-.239.685-.907 1.366-1.673 1.706-.879.389-1.389.969-1.642 1.865-.237.844-.616 1.3-1.079 1.3-1.034 0-1.889 1.011-2.372 2.805-.233.863-.642 1.709-.911 1.882-1.55.994-2.012 2.177-2.331 5.961-.195 2.311-.551 4.114-.889 4.503-.986 1.137-1.092 3.978-.232 6.22.428 1.116.874 3.379.992 5.029.349 4.876.531 5.504 2.137 7.359.841.973 1.646 2.23 1.788 2.795.476 1.898 6.225 2.884 10.81 1.854 2.013-.452 2.341-.165 1.833 1.605-1.199 4.18-.118 9.789 2.117 10.987.821.44 1.595 1.12 1.72 1.511.452 1.41 2.044 1.971 6.533 2.304 3.006.222 4.693.536 5.413 1.008 1.713 1.123 6.407 1.285 7.781.27.668-.494 2.047-.919 3.474-1.07 5.693-.605 5.875-.655 7.085-1.958.645-.696 1.738-1.457 2.427-1.691a3.125 3.125 0 0 0 1.796-1.629 2.808 2.808 0 0 1 1.8-1.574c.933-.275 1.357-.706 1.641-1.671.235-.8.641-1.3 1.055-1.3 1.324 0 3.962-4.13 3.962-6.201 0-.753-2.648-3-3.541-3.005-1.264-.007-1.826-.345-2.183-1.312-.378-1.025-2.414-1.739-5.876-2.062-2.497-.233-3.134-.442-3.8-1.25-2.083-2.527-17.127-2.531-19.763-.005-.597.571-1.866 1.186-2.856 1.383-.979.194-2.067.474-2.417.621-.837.352-1.812-.778-1.268-1.469.217-.275.515-1.289.663-2.253.172-1.126.594-2.01 1.183-2.473 2.605-2.049 2.715-18.43.137-20.574-.804-.669-1.029-1.375-1.372-4.315-.405-3.467-1.145-5.085-2.326-5.085-.551 0-.981-.878-.981-2.004 0-1.816-4.546-2.77-7.519-1.577m6.193.858c.261.208.591.91.734 1.56.143.65.668 1.673 1.166 2.273 1.43 1.719 1.774 2.596 2.252 5.743.246 1.621.788 3.728 1.204 4.682 1.707 3.916 1.917 13.408.341 15.411-.404.513-1.028 2.227-1.388 3.808-.524 2.304-.885 3.045-1.818 3.735-.641.474-1.165 1.091-1.165 1.372 0 .675-3.545 4.103-4.728 4.572-4.097 1.626-9.025-.168-10.526-3.833-.27-.66-.983-1.774-1.584-2.475-2.62-3.055-2.48-21.644.183-24.307.489-.489 1.127-1.683 1.417-2.654.329-1.1 1.113-2.305 2.083-3.203.855-.791 1.555-1.567 1.555-1.724 0-.157 1.135-1.432 2.522-2.833 2.907-2.936 5.759-3.719 7.752-2.127m54.235 12.517c4.687.584 5.656.877 7.415 2.242.509.395 1.93.926 3.159 1.181 4.518.938 6.669 6.592 2.957 7.77-.43.137-1.151.873-1.601 1.637-.451.764-1.242 1.549-1.759 1.746-.517.196-1.244.821-1.616 1.388-.372.568-1.383 1.393-2.248 1.834-.865.441-1.718 1.047-1.895 1.347-.487.825-1.693 1.345-4.746 2.045-1.526.35-3.405.947-4.175 1.326-1.968.97-9.975.972-12 .004-.77-.368-2.57-.885-4-1.15-2.779-.513-4.8-1.342-4.8-1.969 0-.212-.706-.83-1.568-1.375-.863-.544-1.691-1.402-1.84-1.905-.15-.503-.711-1.565-1.248-2.36l-.976-1.444 1.343-2.622c1.443-2.817 4.311-6.01 5.815-6.474.51-.157 1.542-.826 2.295-1.487 2.49-2.186 11.824-2.94 21.488-1.734m-29.053 6.424c-.514 1.119-1.575 1.147-1.787.047-.175-.909 1.141-1.954 1.786-1.419.343.284.343.628.001 1.372m-54.847 4.734c-.612.803-1.521 1.45-2.237 1.594-.849.169-1.357.602-1.719 1.464-.293.697-1.104 1.517-1.884 1.907-.985.491-1.405.993-1.496 1.789-.094.821-.474 1.251-1.473 1.668-1.394.583-2.193 2.283-2.198 4.679-.001.697-.259 1.121-.761 1.252-2.005.525-2.241 1.774-2.241 11.877 0 10.023.187 11.115 2.137 12.494.408.288.91 1.244 1.116 2.124.299 1.28.662 1.736 1.812 2.28.885.419 1.533 1.058 1.684 1.66.416 1.657 4.173 2.37 7.91 1.502 2.085-.485 2.506-.101 1.977 1.803-.984 3.545-.13 8.155 1.511 8.155.511 0 1.044.523 1.52 1.493.574 1.169 1.055 1.567 2.217 1.836.944.218 1.578.635 1.739 1.144.575 1.813 2.448 2.114 13.177 2.121 10.65.006 11.87-.196 13.287-2.203.268-.379 1.268-.886 2.222-1.126 1.362-.343 1.859-.711 2.313-1.711.398-.878 1.013-1.41 1.978-1.714 1.069-.336 1.429-.686 1.521-1.483.096-.828.447-1.141 1.7-1.516.868-.26 1.579-.64 1.579-.843 0-.204.534-.978 1.186-1.721 2.309-2.63 2.341-4.992.083-6.118-.512-.255-1.412-1.031-2-1.725-.874-1.032-1.543-1.345-3.669-1.721-1.81-.32-2.992-.796-3.891-1.567-1.844-1.579-3.17-1.746-13.909-1.746-10.591 0-11.527.127-12.336 1.673-.407.775-1.084 1.196-2.511 1.559-2.246.571-3.201.178-2.545-1.048.216-.402.399-1.238.407-1.858.012-.824.36-1.342 1.298-1.932 1.707-1.074 1.787-1.613 1.822-12.194.035-10.413-.159-11.839-1.878-13.796-.699-.796-1.257-1.88-1.257-2.441 0-2.592-.883-4.605-2.455-5.598-.85-.536-1.545-1.233-1.545-1.547 0-1.918-2.842-2.234-4.191-.466m5.206 3.367c1.686 1.98 2.01 2.664 2.584 5.457.269 1.307.85 2.864 1.292 3.461 2.234 3.022 2.146 20.121-.116 22.574-.411.447-1.032 1.617-1.379 2.6-.347.984-1.064 2.239-1.594 2.789-5.103 5.295-6 5.817-9.287 5.407-1.737-.217-2.298-.487-3.007-1.446-.479-.648-1.444-1.516-2.144-1.929-.942-.556-1.457-1.307-1.982-2.892-.391-1.177-1.062-2.618-1.493-3.201-2.171-2.944-2.062-18.173.145-20.17.431-.39 1.069-1.687 1.416-2.882.38-1.306 1.173-2.745 1.991-3.612.747-.793 1.359-1.586 1.359-1.763 0-.766 5.112-5.401 6.967-6.315 2.333-1.151 2.77-.991 5.248 1.922m51.627 10.282c1.686.55 4.207 1.183 5.602 1.406 3.075.491 3.959.812 5.938 2.155.841.571 1.84 1.038 2.22 1.038 3.329 0 4.055 6.805.845 7.924-.644.224-1.414.916-1.712 1.538-.298.622-1.028 1.363-1.621 1.648-.593.284-1.444 1.03-1.891 1.658-.447.627-1.568 1.443-2.491 1.813-.923.369-2.18 1.093-2.794 1.609-2.717 2.287-19.393 2.966-24.562 1.001-3.085-1.173-7.356-5.805-7.476-8.109-.181-3.447.116-4.739 1.4-6.092a426.86 426.86 0 0 0 2.242-2.38c.518-.555 1.161-1.01 1.428-1.01.267 0 .87-.442 1.341-.983.531-.611 1.958-1.318 3.772-1.867 1.604-.486 3.637-1.21 4.517-1.608 2.567-1.162 9.291-1.031 13.242.259m-24.418 3.037c.429.695-.912 1.834-1.484 1.262-.355-.355-.344-.614.046-1.083.603-.727 1.063-.784 1.438-.179m-57.942 8.055c-.777.268-1.189.741-1.351 1.551-.167.835-.531 1.237-1.282 1.416-1.472.351-1.959.819-2.255 2.168-.194.881-.485 1.172-1.177 1.172-1.083 0-1.649.589-2.032 2.116-.161.642-.758 1.36-1.413 1.699-1.17.605-1.965 2.49-1.97 4.671-.001.664-.466 1.561-1.196 2.308-1.648 1.686-1.806 2.527-1.806 9.606 0 7.038.118 7.684 1.791 9.789.779.98 1.209 1.978 1.209 2.806 0 1.375 1.646 3.963 3.182 5.005.486.33 1.397 1.085 2.024 1.677 1.527 1.444 3.864 2.046 6.041 1.557 2.162-.486 4.184.481 2.798 1.338-1.303.805-.812 4.95.789 6.664.62.664 1.514 1.833 1.987 2.598.951 1.539 2.989 2.73 5.276 3.083.906.14 1.854.641 2.4 1.268 2.22 2.548 17.604 2.573 19.79.032.652-.758 1.507-1.157 3.012-1.406 2.916-.482 3.407-.73 3.803-1.916.248-.745.785-1.159 1.909-1.475 1.263-.354 1.636-.688 1.935-1.729.278-.973.596-1.291 1.289-1.291.964 0 2.165-1.334 2.165-2.406 0-.362.547-.791 1.291-1.011 4.112-1.22 1.737-8.448-2.923-8.896-1.612-.155-2.14-.406-2.798-1.329-1.029-1.445-2.521-1.821-8.57-2.159-3.028-.17-5.127-.477-5.686-.834-1.165-.743-4.962-.723-6.78.037-.792.331-2.991.715-4.887.854-3.834.282-4.747.604-5.203 1.836-.323.875-3.58 2.137-4.113 1.594-.519-.529.64-3.243 1.606-3.759 1.213-.65 1.536-1.532 1.895-5.176.199-2.02.555-3.307 1.129-4.084 1.216-1.646 1.199-6.913-.028-8.573-.687-.929-.896-1.964-1.112-5.519-.362-5.93-.504-6.485-2.065-8.046-.978-.978-1.356-1.714-1.357-2.642-.002-1.596-1.3-3.797-2.499-4.238-1.622-.597-3.679-.749-4.818-.356m3.044 1.156c1.945.999 3.097 2.544 3.894 5.217.442 1.486.98 2.81 1.195 2.943 1.71 1.057 3.128 12.941 2.381 19.964-.633 5.952-.788 6.557-1.99 7.759-.604.605-1.238 1.542-1.409 2.083-.59 1.872-3.762 4.932-6.478 6.247l-2.605 1.262-2.766-1.405c-1.521-.773-2.972-1.791-3.224-2.262-.251-.471-.947-1.315-1.545-1.875-.764-.715-1.232-1.728-1.572-3.4-.266-1.31-.846-3.192-1.288-4.182-1.399-3.126-1.505-10.418-.197-13.434.565-1.301 1.31-3.389 1.656-4.639.346-1.251 1.053-2.781 1.571-3.4.518-.62 1.334-1.899 1.813-2.843.479-.944 1.284-1.904 1.788-2.134.505-.23 1.228-.944 1.608-1.586.379-.643 1.174-1.42 1.766-1.727.592-.307 1.486-1.117 1.988-1.798.959-1.303 1.963-1.536 3.414-.79m58.293 13.649c1.2.592 3.351 1.366 4.781 1.722 1.943.482 3.333 1.196 5.5 2.822 3.097 2.325 3.3 2.717 2.184 4.204a12.271 12.271 0 0 0-1.197 2.066c-.264.611-1.083 1.467-1.82 1.902-.738.435-1.542 1.232-1.788 1.772s-1.152 1.341-2.014 1.781c-.861.439-1.673 1.076-1.803 1.415-.13.339-1.097.995-2.149 1.459-1.789.789-2.415 1.096-5.513 2.702-2.843 1.473-17.544.982-19.783-.662-.56-.411-1.886-1.077-2.948-1.48-1.063-.403-2.233-1.176-2.6-1.716-.368-.54-1.267-1.558-1.998-2.262-2.194-2.116-2.266-5.509-.165-7.801a43.353 43.353 0 0 0 2.024-2.408c.512-.668 1.083-1.214 1.27-1.214.186 0 .878-.54 1.538-1.2.66-.66 1.543-1.2 1.963-1.2.419 0 1.615-.565 2.658-1.256 3.598-2.383 17.505-2.794 21.86-.646m-29.819 3.501c.135.22-.018.777-.342 1.239-.577.824-.596.825-1.004.062-.595-1.111.693-2.356 1.346-1.301m4.957 21.592c1.186.208 2.806.822 3.6 1.364.793.542 2.48 1.283 3.748 1.645 5.03 1.439 7.254 6.106 3.684 7.732-.507.231-1.164.925-1.459 1.541-.296.616-1.041 1.361-1.657 1.657-.616.295-1.315.963-1.552 1.484-.238.521-1.044 1.238-1.793 1.593-.748.355-1.982 1.192-2.742 1.859-.873.767-2.374 1.476-4.084 1.929-1.486.394-3.332 1.051-4.102 1.461-2.203 1.171-11.363 1.081-14.4-.142a48.897 48.897 0 0 0-4.481-1.505c-1.255-.341-2.515-.936-2.8-1.322-.286-.385-1.025-1.024-1.644-1.42-.619-.395-1.479-1.472-1.91-2.393-.432-.921-1.087-2.152-1.456-2.736-.647-1.025-.632-1.117.41-2.621.595-.858 1.081-1.779 1.081-2.047 0-.807 4.133-4.748 5.64-5.377.773-.323 1.899-1.045 2.502-1.605 1.888-1.749 15.955-2.409 23.415-1.097m-31.362 4.801c.299.484-.477 2.008-1.022 2.008-.658 0-.897-1.168-.369-1.805.572-.689 1.048-.759 1.391-.203m-23.203 8.166c-.665.289-1.724 1.227-2.355 2.084-.63.857-1.886 2.307-2.791 3.222a542.93 542.93 0 0 0-2.553 2.6c-2.421 2.498-3.256 3.333-7.084 7.085-1.655 1.622-3.009 3.086-3.009 3.253 0 .168-.358.398-.795.513-.438.114-.973.675-1.19 1.246-.217.571-.953 1.378-1.635 1.793-.682.415-1.508 1.136-1.836 1.604-.327.467-1.562 1.469-2.744 2.225-3.719 2.379-4.449 7.637-1.174 8.459.635.16 1.207.742 1.562 1.591.363.869.924 1.43 1.6 1.6.675.169 1.237.731 1.6 1.6.345.827.929 1.431 1.525 1.581.575.144 1.232.801 1.624 1.623.98 2.054 2.134 2.34 6.163 1.529.495-.1 1.327-.853 1.849-1.674 1.193-1.873 23.753-24.492 24.429-24.492 2.602 0 3.18-7.568.647-8.451-1.011-.353-1.17-.646-1.415-2.606-.346-2.77-1.17-3.631-3.812-3.981-1.676-.222-2.133-.463-2.601-1.367-.878-1.699-3.463-2.145-6.005-1.037m4.593 1.624c.286.344 1.516.916 2.733 1.27 2.71.787 3.915 1.931 4.506 4.277.258 1.024.95 2.271 1.614 2.907 2.115 2.027.098 6.905-3.301 7.984-.431.137-.95.687-1.154 1.224-.204.537-.995 1.344-1.759 1.795-.764.45-1.503 1.178-1.642 1.618-.139.439-.795 1.128-1.458 1.531-.662.402-1.555 1.309-1.984 2.015-.429.705-1.125 1.373-1.546 1.483-.421.11-1.128.813-1.57 1.563-.442.75-1.262 1.537-1.821 1.75-.56.213-1.191.844-1.404 1.404-.213.559-1 1.379-1.75 1.821-.75.442-1.454 1.153-1.566 1.58-.112.427-.851 1.158-1.643 1.625-.792.468-1.44 1.094-1.44 1.391 0 1.125-2.828 3.335-4.61 3.602l-1.724.259-5.333-5.481c-2.933-3.015-5.392-5.641-5.465-5.836-.386-1.038 1.929-4.746 3.447-5.521.87-.444 1.677-1.17 1.794-1.615.116-.444.851-1.185 1.633-1.647.782-.461 1.537-1.198 1.676-1.638.139-.439.795-1.128 1.458-1.531.662-.402 1.555-1.309 1.984-2.015.429-.705 1.138-1.376 1.576-1.491.438-.114 1.062-.722 1.387-1.35.325-.628 1.117-1.415 1.761-1.748.644-.333 1.408-1.099 1.697-1.703.29-.604 1.03-1.339 1.645-1.634.615-.295 1.286-.976 1.49-1.513.204-.538 1.004-1.351 1.778-1.807.773-.457 1.406-1.051 1.406-1.321 0-.694 1.067-1.664 3.559-3.234 2.232-1.407 2.869-1.409 4.026-.014" fill="#d4c88c"/><path d="M163.993 2.412c-.231.434-.64.785-.907.782-.31-.004-.273-.141.102-.378.324-.205.449-.512.279-.683-.339-.338-1.051.572-1.061 1.354-.004.3.264.386.694.223.649-.246.652-.217.044.397-.525.529-1.6.679-5.4.751-2.609.05-5.159.236-5.667.415-.589.207-.834.18-.676-.074.135-.22-.135-.399-.601-.399-.497 0-.738.176-.584.426.177.286-.187.341-1.115.167-1.683-.316-2.882.631-2.537 2.004.21.838.085.887-2.472.976-5.301.185-5.906.271-6.992.99-.605.401-1.1 1.068-1.1 1.483 0 .72-2.341 1.068-5.265.781-.365-.036-.778.12-.918.346-.169.274-.515.248-1.037-.078-.926-.579-2.098-.025-2.318 1.095-.086.438.03.6.306.43a.519.519 0 0 0 .177-.709c-.172-.278-.08-.318.255-.111.375.232.432.164.203-.238-.264-.463-.222-.471.235-.045.45.418.457.577.038.836-.285.176-.464.55-.397.831.143.604-.521.738-4.37.884-2.861.109-3.53.461-3.101 1.632.377 1.028-.486 1.455-3.217 1.593-3.121.158-5.285 1.144-5.643 2.573-.158.627-.456.829-1.054.714-.459-.089-1.073.037-1.364.278-.39.324-.53.313-.53-.042 0-.811-.928-.228-1.611 1.012-.865 1.571-2.732 2.446-5.421 2.542-.673.024-.826.279-.8 1.33.031 1.273-.007 1.303-1.878 1.422-1.05.068-1.823.263-1.717.434.105.171-.07.311-.391.311-.32 0-.582-.126-.582-.279 0-1.129-1.803-.039-1.826 1.104-.031 1.606-.156 1.729-1.913 1.893-1.64.152-3.701 1.481-4.062 2.619-.205.646-.515.749-1.776.591-1.705-.215-2.64.481-2.265 1.686.252.811-.362 2.049-.799 1.611-.157-.157-.527-.085-.822.16-.395.328-.537.327-.537-.003 0-1.101-.791-.302-1.04 1.051-.341 1.857-.676 2.086-3.06 2.094-2.089.007-3.5.976-3.5 2.406 0 .731-.433.998-1.349.831-.192-.035-.229.249-.083.63.25.652.219.651-.511-.009-.781-.707-1.577-.293-1.057.548.136.22.057.4-.176.4-.233 0-.424.444-.424.987 0 .757-.156.928-.666.732-.499-.191-.58-.113-.323.313.267.443.216.475-.234.143-1.083-.796-1.776-.446-1.787.902-.012 1.565-.188 1.755-1.74 1.873-1.501.115-2.027.567-1.238 1.066.398.252.427.374.088.378-.275.003-.5.455-.5 1.004 0 .9-.131.98-1.353.824-1.3-.167-1.362-.113-1.598 1.362-.22 1.373-.403 1.573-1.735 1.888-1.288.304-1.538.554-1.842 1.842-.316 1.335-.513 1.515-1.903 1.737-1.487.238-1.544.304-1.381 1.577.167 1.305.141 1.33-1.509 1.45-1.42.103-1.687.261-1.729 1.022-.142 2.552-.072 2.452-1.649 2.374-1.298-.064-1.505.047-1.546.826-.025.495.123.9.328.9.206 0 .104.27-.226.6-.33.33-.883.6-1.228.6-.346 0-.629.191-.629.424 0 .233-.18.312-.4.176-.841-.52-1.255.276-.548 1.057.66.73.661.761.009.511-.381-.146-.665-.109-.63.083.17.933-.132 1.308-1.255 1.554-1.383.304-1.973 1.411-1.982 3.721-.008 1.936-.301 2.305-2.094 2.634-1.353.249-2.152 1.04-1.051 1.04.33 0 .331.142.003.537-.245.295-.317.665-.16.822.438.437-.8 1.051-1.611.799-1.205-.375-1.901.56-1.686 2.265.158 1.261.055 1.571-.591 1.776-1.138.361-2.467 2.422-2.619 4.062-.164 1.757-.287 1.882-1.893 1.913-1.387.028-1.726.849-.979 2.374.255.52.232.666-.073.477-.295-.183-.44.327-.44 1.551 0 1.888-.062 1.944-2.134 1.928-.522-.004-.677.211-.537.746.108.413.033.65-.166.527-.2-.123-.366.371-.369 1.099-.008 1.784-.753 3.129-2.166 3.911-1.241.685-1.823 1.613-1.012 1.613.355 0 .366.14.042.53-.241.291-.367.905-.278 1.364.117.611-.09.897-.776 1.069-.523.131-1.171.765-1.468 1.436-.292.661-.689 1.201-.883 1.201-.193 0-.15.242.095.537.245.295.312.67.149.833-.362.362-.384.513-.447 3.054-.031 1.236-.206 1.927-.45 1.776-.22-.136-.4-.035-.4.225 0 .356-.136.36-.549.017-1.155-.958-1.667-.126-1.764 2.866-.121 3.743-.282 4.518-.903 4.371-.281-.067-.655.112-.831.397-.259.419-.418.412-.836-.038-.426-.457-.418-.499.045-.235.402.229.47.172.238-.203-.207-.335-.167-.427.111-.255a.519.519 0 0 0 .709-.177c.17-.276.008-.392-.43-.306-1.12.22-1.674 1.392-1.095 2.318.326.522.352.868.078 1.037-.226.14-.382.553-.346.918.291 2.97-.059 5.265-.803 5.265-.427 0-.905.208-1.062.462-.189.305-.108.352.238.138.354-.219.427-.168.226.158-.217.352-.439.363-.826.042-.366-.304-.609-.31-.788-.019-.143.23-.024.422.264.425.368.004.389.094.071.3-.249.162-.456.924-.461 1.694-.043 7.405-.013 7.2-1.063 7.2-.557 0-1.246.383-1.6.889-.697.994-.839 2.092-.223 1.711.57-.352.496.344-.1.94-.474.474-.538 1.473-.661 10.293-.03 2.196-.17 2.834-.621 2.834-.321 0-.49-.15-.377-.334.114-.183-.069-.333-.405-.333-.389 0-.524.226-.371.624.159.417-.044.698-.613.847-.576.15-.852.539-.852 1.199 0 .666.159.887.5.695.4-.226.4-.175 0 .256-.617.665-.659 1.324-.06.954.317-.196.321-.05.014.524-.594 1.111-.594 63.891 0 65.002.234.438.257.691.051.564-.206-.128-.403.481-.437 1.352-.054 1.38.053 1.589.835 1.629.677.035.725.092.197.23-.385.1-.7.36-.7.577 0 .217.165.292.366.168.201-.124.448 0 .548.277.14.389.36.397.972.037.876-.515.936-.036 1.06 8.545.035 2.345.235 3.862.554 4.18.596.596.67 1.292.1.94-.616-.381-.474.717.223 1.711.354.506 1.043.889 1.6.889 1.05 0 1.02-.205 1.063 7.2.005.77.212 1.532.461 1.694.318.206.297.296-.071.3-.288.003-.407.195-.264.425.179.291.422.285.788-.019.387-.321.609-.31.826.042.201.326.128.377-.226.158-.346-.214-.427-.167-.238.138.157.254.635.462 1.062.462.744 0 1.094 2.295.803 5.265-.036.365.12.778.346.918.274.169.248.515-.078 1.037-.579.926-.025 2.098 1.095 2.318.438.086.6-.03.43-.306a.519.519 0 0 0-.709-.177c-.278.172-.318.08-.111-.255.232-.375.164-.432-.238-.203-.463.264-.471.222-.045-.235.418-.45.577-.457.836-.038.176.285.55.464.831.397.621-.147.782.628.903 4.371.097 2.992.609 3.824 1.764 2.866.413-.343.549-.339.549.017 0 .26.18.361.4.225.244-.151.419.54.45 1.776.063 2.541.085 2.692.447 3.054.163.163.096.538-.149.833-.245.295-.288.537-.095.537.194 0 .591.54.883 1.201.297.671.945 1.305 1.468 1.436.686.172.893.458.776 1.069-.089.459.037 1.073.278 1.364.324.39.313.53-.042.53-.811 0-.229.928 1.012 1.613 1.413.782 2.158 2.127 2.166 3.911.003.728.169 1.222.369 1.099.199-.123.274.114.166.527-.14.535.015.75.537.746 2.072-.016 2.134.04 2.134 1.928 0 1.224.145 1.734.44 1.551.305-.189.328-.043.073.477-.747 1.525-.408 2.346.979 2.374 1.606.031 1.729.156 1.893 1.913.152 1.64 1.481 3.701 2.619 4.062.646.205.749.515.591 1.776-.215 1.705.481 2.64 1.686 2.265.811-.252 2.049.362 1.611.799-.157.157-.085.527.16.822.328.395.327.537-.003.537-1.101 0-.302.791 1.051 1.04 1.857.341 2.086.676 2.094 3.06.007 2.089.976 3.5 2.406 3.5.731 0 .998.433.831 1.349-.035.192.249.229.63.083.652-.25.651-.219-.009.511-.707.781-.293 1.577.548 1.057.22-.136.4-.057.4.176 0 .233.283.424.629.424.345 0 .898.27 1.228.6.33.33.432.6.226.6-.205 0-.353.405-.328.9.041.779.248.89 1.546.826 1.577-.078 1.507-.178 1.649 2.374.042.761.309.919 1.729 1.022 1.65.12 1.676.145 1.509 1.45-.163 1.273-.106 1.339 1.381 1.577 1.39.222 1.587.402 1.903 1.737.304 1.288.554 1.538 1.842 1.842 1.335.316 1.515.513 1.737 1.903.239 1.492.3 1.545 1.599 1.378 1.214-.155 1.35-.073 1.35.809 0 .54.225.985.5.988.339.004.31.126-.088.378-.792.501-.261.951 1.258 1.067.687.053 1.536.403 1.889.779.353.375.426.563.164.417-.325-.181-.449.087-.391.844.077 1.001.231 1.108 1.577 1.097 1.289-.01 1.491.112 1.491.9 0 .502.191.912.424.912.233 0 .312.18.176.4-.52.841.276 1.255 1.057.548.665-.601.742-.61.53-.057-.193.503-.026.621.761.534.888-.097.986.014.82.932-.282 1.552.318 2.11 2.483 2.31 3.52.325 3.622.381 3.902 2.128.23 1.44 1.047 2.318 1.047 1.125 0-.355.117-.363.449-.031.247.247.697.353 1 .237.525-.202.75.506.574 1.804-.146 1.075.827 1.673 2.4 1.475 1.261-.158 1.571-.055 1.776.591.358 1.13 2.26 2.354 3.99 2.569 1.843.228 1.954.336 1.985 1.943.028 1.387.849 1.726 2.374.979.502-.246.664-.229.49.051-.162.262.452.463 1.652.54 1.871.119 1.909.149 1.878 1.422-.026 1.051.127 1.306.8 1.33 2.689.096 4.556.971 5.421 2.542.683 1.24 1.611 1.823 1.611 1.012 0-.355.14-.366.53-.042.291.241.905.367 1.364.278.596-.114.898.088 1.059.71.124.478.815 1.218 1.536 1.644 1.329.784 1.91.886 5.535.976 1.236.031 1.927.206 1.776.45-.136.22-.035.4.225.4.356 0 .36.136.017.549-.958 1.155-.126 1.667 2.866 1.764 3.743.121 4.518.282 4.371.903-.067.281.112.655.397.831.419.259.412.418-.038.836-.457.426-.499.418-.235-.045.229-.402.172-.47-.203-.238-.335.207-.427.167-.255-.111a.519.519 0 0 0-.177-.709c-.276-.17-.392-.008-.306.43.22 1.12 1.392 1.674 2.318 1.095.522-.326.868-.352 1.037-.078.14.226.553.382.918.346 2.924-.287 5.265.061 5.265.781 0 .415.495 1.082 1.1 1.483 1.086.719 1.691.805 6.992.99 2.557.089 2.682.138 2.472.976-.345 1.373.854 2.32 2.537 2.004.928-.174 1.292-.119 1.115.167-.154.25.087.426.584.426.539 0 .743-.168.562-.462-.192-.311-.108-.352.257-.126.527.325 3.387.508 8.814.562 2.027.02 2.634.16 2.634.608 0 .321-.15.49-.334.377-.183-.114-.333.069-.333.405 0 .389.226.524.624.371.417-.159.698.044.847.613.15.576.539.852 1.199.852.538 0 .876-.164.752-.365-.128-.206.255-.264.876-.134 1.439.302 65.165.302 66.604 0 .621-.13 1.004-.072.876.134-.124.201.214.365.752.365.66 0 1.049-.276 1.199-.852.149-.569.43-.772.847-.613.398.153.624.018.624-.371 0-.336-.15-.519-.333-.405-.184.113-.334-.056-.334-.377 0-.448.607-.588 2.634-.608 5.427-.054 8.287-.237 8.814-.562.365-.226.449-.185.257.126-.181.294.023.462.562.462.518 0 .741-.172.574-.443-.19-.307.102-.36.952-.173 1.814.398 3.016-.375 2.739-1.761l-.221-1.103 2.678-.094c5.286-.184 5.893-.27 6.978-.989.605-.401 1.1-1.068 1.1-1.483 0-.72 2.341-1.068 5.265-.781.365.036.778-.12.918-.346.169-.274.515-.248 1.037.078.926.579 2.098.025 2.318-1.095.086-.438-.03-.6-.306-.43a.519.519 0 0 0-.177.709c.172.278.08.318-.255.111-.375-.232-.432-.164-.203.238.264.463.222.471-.235.045-.45-.418-.457-.577-.038-.836.285-.176.464-.55.397-.831-.147-.621.628-.782 4.371-.903 2.992-.097 3.824-.609 2.866-1.764-.343-.413-.339-.549.017-.549.26 0 .361-.18.225-.4-.151-.244.54-.419 1.776-.45 3.625-.09 4.206-.192 5.535-.976.721-.426 1.412-1.166 1.536-1.644.161-.622.463-.824 1.059-.71.459.089 1.073-.037 1.364-.278.39-.324.53-.313.53.042 0 .811.928.228 1.611-1.012.894-1.623 2.384-2.293 5.621-2.526.444-.032.622-.432.6-1.346-.031-1.273.007-1.303 1.878-1.422 1.2-.077 1.814-.278 1.652-.54-.174-.28-.012-.297.49-.051 1.525.747 2.346.408 2.374-.979.031-1.607.142-1.715 1.985-1.943 1.73-.215 3.632-1.439 3.99-2.569.205-.646.515-.749 1.776-.591 1.573.198 2.546-.4 2.4-1.475-.176-1.298.049-2.006.574-1.804.303.116.753.01 1-.237.332-.332.449-.324.449.031 0 1.193.817.315 1.047-1.125.28-1.747.382-1.803 3.902-2.128 2.165-.2 2.765-.758 2.483-2.31-.166-.918-.068-1.029.82-.932.787.087.954-.031.761-.534-.212-.553-.135-.544.53.057.781.707 1.577.293 1.057-.548-.136-.22-.057-.4.176-.4.233 0 .424-.41.424-.912 0-.788.202-.91 1.491-.9 1.346.011 1.5-.096 1.577-1.097.058-.757-.066-1.025-.391-.844-.262.146-.189-.042.164-.417.353-.376 1.202-.726 1.889-.779 1.519-.116 2.05-.566 1.258-1.067-.398-.252-.427-.374-.088-.378.275-.003.5-.448.5-.988 0-.884.135-.964 1.366-.807 1.317.169 1.375.119 1.63-1.385.234-1.39.423-1.598 1.721-1.905 1.246-.295 1.509-.558 1.804-1.804.307-1.298.515-1.487 1.905-1.721 1.499-.254 1.554-.317 1.388-1.608-.169-1.324-.147-1.346 1.507-1.466 1.42-.103 1.687-.261 1.729-1.022.142-2.552.072-2.452 1.649-2.374 1.298.064 1.505-.047 1.546-.826.025-.495-.123-.9-.328-.9-.206 0-.104-.27.226-.6.33-.33.883-.6 1.228-.6.346 0 .629-.191.629-.424 0-.233.18-.312.4-.176.841.52 1.255-.276.548-1.057-.66-.73-.661-.761-.009-.511.381.146.665.109.63-.083-.167-.916.1-1.349.831-1.349 1.43 0 2.399-1.411 2.406-3.5.008-2.384.237-2.719 2.094-3.06 1.373-.253 2.146-1.04 1.02-1.04-.355 0-.363-.117-.031-.449.247-.247.353-.697.237-1-.202-.525.506-.75 1.804-.574 1.075.146 1.673-.827 1.475-2.4-.158-1.261-.055-1.571.591-1.776 1.13-.358 2.354-2.26 2.569-3.99.228-1.843.336-1.954 1.943-1.985 1.387-.028 1.726-.849.979-2.374-.255-.52-.232-.666.073-.477.295.183.44-.327.44-1.551 0-1.888.062-1.944 2.134-1.928.522.004.677-.211.537-.746-.108-.413-.045-.658.14-.543.185.114.321-.301.304-.923-.046-1.619.899-3.325 2.257-4.073 1.24-.683 1.823-1.611 1.012-1.611-.355 0-.366-.14-.042-.53.241-.291.367-.905.278-1.364-.117-.608.089-.897.759-1.065.521-.131 1.136-.753 1.419-1.436.274-.663.679-1.205.9-1.205.244 0 .227-.209-.046-.537-.245-.295-.312-.67-.149-.833.362-.362.384-.513.447-3.054.031-1.236.206-1.927.45-1.776.22.136.4.035.4-.225 0-.356.136-.36.549-.017 1.155.958 1.667.126 1.764-2.866.121-3.743.282-4.518.903-4.371.281.067.655-.112.831-.397.259-.419.418-.412.836.038.426.457.418.499-.045.235-.402-.229-.47-.172-.238.203.207.335.167.427-.111.255a.519.519 0 0 0-.709.177c-.17.276-.008.392.43.306 1.12-.22 1.674-1.392 1.095-2.318-.326-.522-.352-.868-.078-1.037.226-.14.382-.553.346-.918-.291-2.97.059-5.265.803-5.265.427 0 .905-.208 1.062-.462.189-.305.108-.352-.238-.138-.354.219-.427.168-.226-.158.217-.352.439-.363.826-.042.366.304.609.31.788.019.143-.23.024-.422-.264-.425-.368-.004-.389-.094-.071-.3.249-.162.456-.924.461-1.694.043-7.405.013-7.2 1.063-7.2.557 0 1.246-.383 1.6-.889.791-1.129.793-1.778.006-1.778-.34 0-.532.223-.427.496.238.622-1.164 1.937-1.708 1.601-.406-.251 2.084-3.03 2.714-3.03.185 0 .335-1.755.335-3.9-.003-8.174.127-9.288 1.017-8.765.612.36.832.352.972-.037.1-.277.347-.401.548-.277.201.124.366.049.366-.168 0-.217-.315-.477-.7-.577-.528-.138-.48-.195.197-.23.782-.04.889-.249.835-1.629-.034-.871-.231-1.48-.437-1.352-.206.127-.18-.132.058-.577.593-1.108.577-63.898-.016-65.007-.299-.557-.292-.701.023-.506.599.37.557-.289-.06-.954-.4-.431-.4-.482 0-.256.341.192.5-.029.5-.695 0-.66-.276-1.049-.852-1.199-.569-.149-.772-.43-.613-.847.153-.398.018-.624-.371-.624-.336 0-.519.15-.405.333.113.184-.056.334-.377.334-.61 0-.672-.862-.672-9.367 0-2.035-.154-3.7-.342-3.7-.634 0-3.128-2.777-2.72-3.03.544-.336 1.946.979 1.708 1.601-.105.273.087.496.427.496.787 0 .785-.649-.006-1.778-.354-.506-1.043-.889-1.6-.889-1.05 0-1.02.205-1.063-7.2-.005-.77-.212-1.532-.461-1.694-.318-.206-.297-.296.071-.3.288-.003.407-.195.264-.425-.179-.291-.422-.285-.788.019-.387.321-.609.31-.826-.042-.201-.326-.128-.377.226-.158.346.214.427.167.238-.138-.157-.254-.635-.462-1.062-.462-.744 0-1.094-2.295-.803-5.265.036-.365-.12-.778-.346-.918-.274-.169-.248-.515.078-1.037.579-.926.025-2.098-1.095-2.318-.438-.086-.6.03-.43.306a.519.519 0 0 0 .709.177c.278-.172.318-.08.111.255-.232.375-.164.432.238.203.463-.264.471-.222.045.235-.418.45-.577.457-.836.038-.176-.285-.55-.464-.831-.397-.621.147-.782-.628-.903-4.371-.097-2.992-.609-3.824-1.764-2.866-.413.343-.549.339-.549-.017 0-.26-.18-.361-.4-.225-.244.151-.419-.54-.45-1.776-.063-2.541-.085-2.692-.447-3.054-.163-.163-.096-.538.149-.833.273-.328.29-.537.046-.537-.221 0-.626-.542-.9-1.205-.283-.683-.898-1.305-1.419-1.436-.67-.168-.876-.457-.759-1.065.089-.459-.037-1.073-.278-1.364-.324-.39-.313-.53.042-.53.811 0 .229-.928-1.012-1.613-1.413-.782-2.158-2.127-2.166-3.911-.003-.728-.169-1.222-.369-1.099-.199.123-.274-.114-.166-.527.14-.535-.015-.75-.537-.746-2.072.016-2.134-.04-2.134-1.928 0-1.224-.145-1.734-.44-1.551-.305.189-.328.043-.073-.477.747-1.525.408-2.346-.979-2.374-1.606-.031-1.729-.156-1.893-1.913-.152-1.64-1.481-3.701-2.619-4.062-.646-.205-.749-.515-.591-1.776.215-1.705-.481-2.64-1.686-2.265-.811.252-2.049-.362-1.611-.799.157-.157.085-.527-.16-.822-.328-.395-.327-.537.003-.537 1.101 0 .302-.791-1.051-1.04-1.857-.341-2.086-.676-2.094-3.06-.007-2.089-.976-3.5-2.406-3.5-.731 0-.998-.433-.831-1.349.035-.192-.249-.229-.63-.083-.652.25-.651.219.009-.511.707-.781.293-1.577-.548-1.057-.22.136-.4.057-.4-.176 0-.233-.283-.424-.629-.424-.345 0-.898-.27-1.228-.6-.33-.33-.432-.6-.226-.6.205 0 .353-.405.328-.9-.041-.779-.248-.89-1.546-.826-1.577.078-1.507.178-1.649-2.374-.042-.761-.309-.919-1.729-1.022-1.654-.12-1.676-.142-1.507-1.466.166-1.291.111-1.354-1.388-1.608-1.39-.234-1.598-.423-1.905-1.721-.297-1.254-.555-1.508-1.835-1.811-1.335-.316-1.515-.513-1.737-1.903-.239-1.492-.3-1.545-1.599-1.378-1.214.155-1.35.073-1.35-.809 0-.54-.225-.985-.5-.988-.339-.004-.31-.126.088-.378.789-.499.263-.951-1.238-1.066-1.552-.118-1.728-.308-1.74-1.873-.011-1.348-.704-1.698-1.787-.902-.45.332-.501.3-.234-.143.257-.426.176-.504-.323-.313-.51.196-.666.025-.666-.732 0-.543-.191-.987-.424-.987-.233 0-.312-.18-.176-.4.52-.841-.276-1.255-1.057-.548-.73.66-.761.661-.511.009.146-.381.109-.665-.083-.63-.916.167-1.349-.1-1.349-.831 0-1.43-1.411-2.399-3.5-2.406-2.384-.008-2.719-.237-3.06-2.094-.249-1.353-1.04-2.152-1.04-1.051 0 .33-.142.331-.537.003-.295-.245-.665-.317-.822-.16-.437.438-1.051-.8-.799-1.611.375-1.205-.56-1.901-2.265-1.686-1.261.158-1.571.055-1.776-.591-.361-1.138-2.422-2.467-4.062-2.619-1.757-.164-1.882-.287-1.913-1.893-.028-1.387-.849-1.726-2.374-.979-.502.246-.664.229-.49-.051.162-.262-.452-.463-1.652-.54-1.871-.119-1.909-.149-1.878-1.422.022-.914-.156-1.314-.6-1.346-3.237-.233-4.727-.903-5.621-2.526-.683-1.24-1.611-1.823-1.611-1.012 0 .355-.14.366-.53.042-.291-.241-.905-.367-1.364-.278-.598.115-.896-.087-1.054-.714-.12-.481-.811-1.229-1.536-1.662-1.314-.787-1.736-.86-5.54-.954-1.236-.031-1.927-.206-1.776-.45.136-.22.035-.4-.225-.4-.356 0-.36-.136-.017-.549.958-1.155.126-1.667-2.866-1.764-3.743-.121-4.518-.282-4.371-.903.067-.281-.112-.655-.397-.831-.419-.259-.412-.418.038-.836.457-.426.499-.418.235.045-.229.402-.172.47.203.238.335-.207.427-.167.255.111a.519.519 0 0 0 .177.709c.276.17.392.008.306-.43-.22-1.12-1.392-1.674-2.318-1.095-.522.326-.868.352-1.037.078-.14-.226-.553-.382-.918-.346-2.924.287-5.265-.061-5.265-.781 0-.415-.495-1.082-1.1-1.483-1.085-.719-1.692-.805-6.978-.989l-2.678-.094.221-1.103c.277-1.386-.925-2.159-2.739-1.761-.85.187-1.142.134-.952-.173.167-.271-.056-.443-.574-.443-.466 0-.736.179-.601.399.158.254-.087.281-.676.074-.508-.179-3.058-.365-5.667-.415-3.8-.072-4.875-.222-5.4-.751-.608-.614-.605-.643.044-.397.43.163.698.077.694-.223-.01-.782-.722-1.692-1.061-1.354-.17.171-.045.478.279.683.375.237.412.374.102.378-.267.003-.676-.348-.907-.782-.305-.568-.804-.773-1.798-.735-.757.028-1.272.22-1.145.427.128.207-.125.184-.563-.05-1.111-.594-63.891-.594-65.002 0-.438.234-.691.257-.563.05.127-.207-.388-.399-1.145-.427-.994-.038-1.493.167-1.798.735m-16.049 3.954c-.519.421-1.034.676-1.143.567-.235-.233 1.184-1.333 1.72-1.333.202 0-.057.345-.577.766m104.679-.199c.427.312.686.657.576.766-.109.109-.624-.146-1.143-.567-1.087-.881-.599-1.051.567-.199m-103.45 1.201c.444.535.22.589-1.097.263-.153-.038.323-.831.499-.831.07 0 .339.256.598.568m102.36.09c-.073.178-.368.359-.655.401-.411.06-.42-.047-.043-.501.48-.578.949-.511.698.1M112.542 20.993c-1.032.755-1.223.38-.316-.621.457-.505.813-.654.906-.377.083.25-.182.7-.59.998m175.858.272c0 .188-.36.117-.8-.158-.44-.275-.8-.754-.8-1.065 0-.435.185-.399.8.158.44.398.8.878.8 1.065M306 28.8c0 .22-.191.4-.424.4-.233 0-.288.225-.123.5.204.34.084.324-.376-.049-.733-.594-.928-1.053-.277-.651.22.136.4.057.4-.176 0-.233.18-.424.4-.424.22 0 .4.18.4.4M90 33.576c0 .472-.78.977-1.067.691-.286-.287.219-1.067.691-1.067.207 0 .376.169.376.376m221.125.399c.1.3-.05.45-.35.35-.289-.096-.604-.411-.7-.7-.1-.3.05-.45.35-.35.289.096.604.411.7.7M43.674 74.822c-.509.204-.811.556-.672.781.139.226.408.314.598.197.629-.389.802.5.196 1.004-.578.479-.64.446-.746-.404-.096-.766-.852-.441-1.11.476l-.26.924-.04-.9c-.047-1.068 1.27-2.51 2.26-2.475.523.019.466.119-.226.397M34.4 89.176c0 .472-.78.977-1.067.691-.286-.287.219-1.067.691-1.067.207 0 .376.169.376.376m332.325.399c.1.3-.05.45-.35.35-.289-.096-.604-.411-.7-.7-.1-.3.05-.45.35-.35.289.096.604.411.7.7M29.2 94.424c0 .233.18.312.4.176.651-.402.456.057-.277.651-.46.373-.58.389-.376.049.165-.275.11-.5-.123-.5-.233 0-.424-.18-.424-.4 0-.22.18-.4.4-.4.22 0 .4.191.4.424m342.4-.024c0 .22-.191.4-.424.4-.233 0-.288.225-.123.5.204.34.084.324-.376-.049-.733-.594-.928-1.053-.277-.651.22.136.4.057.4-.176 0-.233.18-.424.4-.424.22 0 .4.18.4.4m-69.782 3.782c1.859 1.858 1.27 15.123-.748 16.859-.782.673-1.092 1.407-1.276 3.024-.388 3.413-.54 3.852-1.777 5.117-.644.659-1.53 2.01-1.969 3.003-.57 1.288-1.205 1.998-2.219 2.482-.782.372-1.53 1.021-1.664 1.442-.282.891-3.083 2.269-4.636 2.282-1.011.009-2.329.899-2.329 1.573 0 1.234-8.091 2.095-12 1.278-3.455-.723-8.11-5.638-8.631-9.112-.667-4.444.552-10.43 2.24-11.002.209-.07.538-.981.733-2.024.402-2.158 1.035-3.104 2.075-3.104.488 0 .808-.417.995-1.3.534-2.517 3.247-5.1 5.358-5.1.497 0 1.052-.469 1.439-1.217.754-1.458 1.973-1.983 4.603-1.983 1.637 0 2.162-.197 3.182-1.194 1.712-1.674 2.773-1.874 10.324-1.952 5.148-.052 5.35-.023 6.3.928m-43.018 8.602l1.4 1.162-.025 10.527c-.026 11.257-.312 13.136-2.088 13.699-.645.205-.836.758-1.065 3.086-.249 2.529-.425 2.971-1.619 4.089-.739.692-1.524 1.946-1.752 2.8-.458 1.717-1.479 3.053-2.333 3.053-.308 0-.821.628-1.142 1.396-.39.933-1.034 1.585-1.941 1.964-.747.312-1.477.944-1.624 1.404-.824 2.597-7.26 2.591-8.166-.007-.224-.642-.731-1.283-1.126-1.423-1.411-.501-2.089-1.456-2.573-3.621-.362-1.617-.732-2.306-1.399-2.61-1.433-.653-1.747-2.359-1.747-9.503 0-7.227.309-8.848 1.82-9.536.539-.246.98-.688.98-.983 0-1.88 1.285-4.687 2.257-4.931.67-.168 1.229-.737 1.602-1.63.36-.862 1.034-1.566 1.811-1.893.727-.305 1.451-1.027 1.755-1.75.403-.96.897-1.33 2.246-1.683.951-.248 1.909-.668 2.129-.932 1.165-1.399 2.816-2.23 4.921-2.474 1.253-.146 3.089-.505 4.079-.799.99-.293 1.89-.541 2-.55.11-.01.83.506 1.6 1.145M21.107 112.4c-.275.44-.754.8-1.065.8-.435 0-.399-.185.158-.8.398-.44.878-.8 1.065-.8.188 0 .117.36-.158.8m358.877.739c-.262.087-.633-.088-.824-.39-.632-.998-.373-1.285.471-.521.536.485.662.808.353.911M225.085 130.42c1.393.485 2.079 1.76 2.398 4.452.166 1.398.429 1.973.982 2.149 1.452.46 1.997 1.989 2.307 6.465.244 3.51.479 4.612 1.264 5.914 1.461 2.424 1.449 9.617-.018 11.18-.787.838-1.041 1.653-1.273 4.089-.262 2.737-.43 3.187-1.674 4.486-1.399 1.46-2.104 2.945-1.705 3.589.304.493 3.834-.731 3.834-1.329 0-1.14 1.563-1.865 4.701-2.182 2.361-.238 3.395-.529 3.99-1.124 1.58-1.58 9.156-1.495 10.943.122.521.471 1.95.749 5.046.981 4.998.374 6.394.804 6.896 2.126.307.807.729.993 2.77 1.224 3.514.398 4.186 1.093 4.38 4.537.175 3.084-.31 4.501-1.537 4.501-.51 0-1.027.517-1.486 1.486-.504 1.066-1.071 1.592-2.003 1.858-.842.241-1.3.623-1.3 1.085 0 1.017-1.089 1.971-2.249 1.971-.745 0-1.098.302-1.414 1.208-.538 1.544-1.143 1.846-4.392 2.193-2.262.241-2.718.422-3.086 1.23-1.065 2.336-15.593 2.366-18.081.037-.695-.65-1.722-1.044-3.202-1.229-2.303-.287-6.386-3.259-6.374-4.639.003-.33-.548-1.055-1.225-1.611-1.594-1.311-1.978-3.623-.959-5.771.865-1.822.348-2.365-1.818-1.913-2.91.607-4.449.339-5.562-.968-.571-.671-1.502-1.332-2.069-1.469-.568-.137-1.235-.694-1.482-1.237-.248-.544-.905-1.287-1.461-1.651-1.057-.692-1.82-2.708-1.824-4.818-.001-.758-.333-1.533-.857-2-2.664-2.373-2.837-15.373-.234-17.562.683-.575 1.079-1.518 1.405-3.352.448-2.511 1.324-4.048 2.308-4.048.275 0 .742-.76 1.038-1.688.428-1.342.789-1.759 1.766-2.037.896-.255 1.328-.69 1.6-1.612.275-.934.706-1.362 1.657-1.642.943-.277 1.352-.677 1.532-1.497.408-1.857 3.436-2.561 6.468-1.504m66.365 9.537c3.001.861 4.217 3.523 2.76 6.043-.89 1.539-.933 1.67-1.209 3.731-.186 1.388-.629 2.344-1.574 3.4-.723.808-1.529 2.13-1.791 2.937-.521 1.604-1.039 2.17-2.184 2.389-.439.084-.936.718-1.2 1.53-.338 1.037-.766 1.476-1.698 1.742-.828.236-1.432.774-1.8 1.603-.415.935-.964 1.364-2.193 1.714-.901.257-2.093.922-2.649 1.478-1.53 1.53-3.492 1.871-10.786 1.874-6.973.002-8.254-.227-9.926-1.774-.55-.509-1.931-1.228-3.068-1.597-1.655-.536-2.151-.906-2.48-1.851-.227-.649-.833-1.341-1.348-1.537-2.707-1.029-2.761-8.039-.063-8.039.356 0 .894-.689 1.255-1.608.427-1.086.945-1.687 1.595-1.85.529-.133 1.385-.912 1.902-1.731.739-1.171 1.352-1.6 2.873-2.013 1.21-.329 2.393-1.014 3.159-1.83 1.086-1.157 1.549-1.337 4.089-1.587 2.301-.227 2.911-.43 3.102-1.032.344-1.082 1.514-1.582 4.527-1.934 3.782-.441 17.225-.483 18.707-.058M8.102 147.1c.082.165-.257.689-.755 1.164-1.05 1.003-1.597.343-.633-.764.65-.746 1.145-.889 1.388-.4m192.469 9.529c.346.345.629.961.629 1.367 0 1.126.43 2.004.981 2.004 1.181 0 1.921 1.618 2.326 5.085.343 2.94.568 3.646 1.372 4.315 2.578 2.144 2.468 18.525-.137 20.574-.589.463-1.011 1.347-1.183 2.473-.148.964-.446 1.978-.663 2.253-.544.691.431 1.821 1.268 1.469.35-.147 1.438-.427 2.417-.621.99-.197 2.259-.812 2.856-1.383 2.636-2.526 17.68-2.522 19.763.005.666.808 1.303 1.017 3.8 1.25 3.462.323 5.498 1.037 5.876 2.062.357.967.919 1.305 2.183 1.312.893.005 3.541 2.252 3.541 3.005 0 2.071-2.638 6.201-3.962 6.201-.414 0-.82.5-1.055 1.3-.284.965-.708 1.396-1.641 1.671a2.808 2.808 0 0 0-1.8 1.574 3.125 3.125 0 0 1-1.796 1.629c-.689.234-1.782.995-2.427 1.691-1.21 1.303-1.392 1.353-7.085 1.958-1.427.151-2.806.576-3.474 1.07-1.374 1.015-6.068.853-7.781-.27-.72-.472-2.407-.786-5.413-1.008-4.489-.333-6.081-.894-6.533-2.304-.125-.391-.899-1.071-1.72-1.511-2.235-1.198-3.316-6.807-2.117-10.987.508-1.77.18-2.057-1.833-1.605-4.585 1.03-10.334.044-10.81-1.854-.142-.565-.947-1.822-1.788-2.795-1.606-1.855-1.788-2.483-2.137-7.359-.118-1.65-.564-3.913-.992-5.029-.86-2.242-.754-5.083.232-6.22.338-.389.694-2.192.889-4.503.319-3.784.781-4.967 2.331-5.961.269-.173.678-1.019.911-1.882.483-1.794 1.338-2.805 2.372-2.805.463 0 .842-.456 1.079-1.3.253-.896.763-1.476 1.642-1.865.766-.34 1.434-1.021 1.673-1.706.659-1.89 6.665-2.841 8.206-1.3m23.293 18.374c-.838.612-.749 1.933.141 2.098.805.148 1.681-1.732 1.05-2.255-.296-.246-.716-.191-1.191.157m-50.353 5.22c.489.342.889.88.889 1.195 0 .314.695 1.011 1.545 1.547 1.572.993 2.455 3.006 2.455 5.598 0 .561.558 1.645 1.257 2.441 1.719 1.957 1.913 3.383 1.878 13.796-.035 10.581-.115 11.12-1.822 12.194-.938.59-1.286 1.108-1.298 1.932-.008.62-.191 1.456-.407 1.858-.656 1.226.299 1.619 2.545 1.048 1.427-.363 2.104-.784 2.511-1.559.809-1.546 1.745-1.673 12.336-1.673 10.739 0 12.065.167 13.909 1.746.899.771 2.081 1.247 3.891 1.567 2.126.376 2.795.689 3.669 1.721.588.694 1.488 1.47 2 1.725 2.258 1.126 2.226 3.488-.083 6.118-.652.743-1.186 1.517-1.186 1.721 0 .203-.711.583-1.579.843-1.253.375-1.604.688-1.7 1.516-.092.797-.452 1.147-1.521 1.483-.965.304-1.58.836-1.978 1.714-.454 1-.951 1.368-2.313 1.711-.954.24-1.954.747-2.222 1.126-2.311 3.272-25.429 3.344-26.464.082-.161-.509-.795-.926-1.739-1.144-1.162-.269-1.643-.667-2.217-1.836-.476-.97-1.009-1.493-1.52-1.493-1.641 0-2.495-4.61-1.511-8.155.529-1.904.108-2.288-1.977-1.803-3.737.868-7.494.155-7.91-1.502-.151-.602-.799-1.241-1.684-1.66-1.15-.544-1.513-1-1.812-2.28-.206-.88-.708-1.836-1.116-2.124-3.325-2.351-3.235-23.498.104-24.371.502-.131.76-.555.761-1.252.005-2.396.804-4.096 2.198-4.679.999-.417 1.379-.847 1.473-1.668.091-.796.511-1.298 1.496-1.789.78-.39 1.591-1.21 1.884-1.907.362-.862.87-1.295 1.719-1.464.716-.144 1.625-.791 2.237-1.594 1.136-1.489 1.958-1.671 3.302-.729m27.675 17.594c-.39.469-.401.728-.046 1.083.572.572 1.913-.567 1.484-1.262-.375-.605-.835-.548-1.438.179m-51.686 8.232c1.199.441 2.497 2.642 2.499 4.238.001.928.379 1.664 1.357 2.642 1.561 1.561 1.703 2.116 2.065 8.046.216 3.555.425 4.59 1.112 5.519 1.227 1.66 1.244 6.927.028 8.573-.574.777-.93 2.064-1.129 4.084-.359 3.644-.682 4.526-1.895 5.176-.966.516-2.125 3.23-1.606 3.759.533.543 3.79-.719 4.113-1.594.456-1.232 1.369-1.554 5.203-1.836 1.896-.139 4.095-.523 4.887-.854 1.818-.76 5.615-.78 6.78-.037.559.357 2.658.664 5.686.834 6.049.338 7.541.714 8.57 2.159.658.923 1.186 1.174 2.798 1.329 4.66.448 7.035 7.676 2.923 8.896-.744.22-1.291.649-1.291 1.011 0 1.072-1.201 2.406-2.165 2.406-.693 0-1.011.318-1.289 1.291-.299 1.041-.672 1.375-1.935 1.729-1.124.316-1.661.73-1.909 1.475-.396 1.186-.887 1.434-3.803 1.916-1.505.249-2.36.648-3.012 1.406-2.186 2.541-17.57 2.516-19.79-.032-.546-.627-1.494-1.128-2.4-1.268-2.287-.353-4.325-1.544-5.276-3.083a20.053 20.053 0 0 0-1.987-2.598c-1.601-1.714-2.092-5.859-.789-6.664 1.386-.857-.636-1.824-2.798-1.338-2.177.489-4.514-.113-6.041-1.557-.627-.592-1.538-1.347-2.024-1.677-1.536-1.042-3.182-3.63-3.182-5.005 0-.828-.43-1.826-1.209-2.806-1.673-2.105-1.791-2.751-1.791-9.789 0-7.079.158-7.92 1.806-9.606.73-.747 1.195-1.644 1.196-2.308.005-2.181.8-4.066 1.97-4.671.655-.339 1.252-1.057 1.413-1.699.383-1.527.949-2.116 2.032-2.116.692 0 .983-.291 1.177-1.172.296-1.349.783-1.817 2.255-2.168.751-.179 1.115-.581 1.282-1.416.365-1.826 3.045-2.345 6.169-1.195m25.399 18.012c-.329.329-.342.686-.045 1.239.408.763.427.762 1.004-.062.869-1.24.077-2.213-.959-1.177m-26.495 26.534c-.528.637-.289 1.805.369 1.805.545 0 1.321-1.524 1.022-2.008-.343-.556-.819-.486-1.391.203M7.936 252.971c-.43.502-1.938-.901-1.682-1.567.147-.383.438-.293 1.1.338.495.472.757 1.025.582 1.229m123.446 5.277c.356.137.903.743 1.215 1.347.468.904.925 1.145 2.601 1.367 2.642.35 3.466 1.211 3.812 3.981.245 1.96.404 2.253 1.415 2.606 2.533.883 1.955 8.451-.647 8.451-.676 0-23.236 22.619-24.429 24.492-.522.821-1.354 1.574-1.849 1.674-4.029.811-5.183.525-6.163-1.529-.392-.822-1.049-1.479-1.624-1.623-.596-.15-1.18-.754-1.525-1.581-.363-.869-.925-1.431-1.6-1.6-.676-.17-1.237-.731-1.6-1.6-.355-.849-.927-1.431-1.562-1.591-3.275-.822-2.545-6.08 1.174-8.459 1.182-.756 2.417-1.758 2.744-2.225.328-.468 1.154-1.189 1.836-1.604.682-.415 1.418-1.222 1.635-1.793.217-.571.752-1.132 1.19-1.246.437-.115.795-.345.795-.513 0-.167 1.354-1.631 3.009-3.253 3.828-3.752 4.663-4.587 7.084-7.085a542.93 542.93 0 0 1 2.553-2.6c.905-.915 2.161-2.365 2.791-3.222 1.64-2.229 4.808-3.29 7.145-2.394M20.967 287.457c.378.985.051 1.047-.765.145-.614-.678-.63-.802-.107-.802.341 0 .733.296.872.657m358.831.145c-.816.902-1.143.84-.765-.145.139-.361.531-.657.872-.657.523 0 .507.124-.107.802M29.651 305.077c.302.372.339.551.083.397-.256-.153-.546-.053-.645.224-.104.292-.328.354-.534.147-.207-.206-.145-.43.147-.534.277-.099.401-.344.277-.545-.386-.624.094-.402.672.311m341.37-.311c-.124.201 0 .446.277.545.292.104.354.328.147.534-.206.207-.43.145-.534-.147-.099-.277-.389-.377-.645-.224-.256.154-.219-.025.083-.397.578-.713 1.058-.935.672-.311m-336.696 6.009c.1.3-.05.45-.35.35-.289-.096-.604-.411-.7-.7-.1-.3.05-.45.35-.35.289.096.604.411.7.7m332.475-.399c0 .472-.78.977-1.067.691-.286-.287.219-1.067.691-1.067.207 0 .376.169.376.376M75.428 356.355c-.282.456.754 1.33 1.13.954.156-.157.166.025.02.403-.327.854-.739.87-1.549.059-.759-.758-.8-1.236-.129-1.506.743-.3.766-.296.528.09m250.172.459c0 1.167-1.792 1.906-2.178.898-.146-.378-.136-.56.02-.403.374.374 1.413-.497 1.133-.95-.119-.192.063-.243.404-.112.342.131.621.386.621.567m-235.675 9.561c.1.3-.05.45-.35.35-.289-.096-.604-.411-.7-.7-.1-.3.05-.45.35-.35.289.096.604.411.7.7m221.275-.399c0 .472-.78.977-1.067.691-.286-.287.219-1.067.691-1.067.207 0 .376.169.376.376m-215.949 4.701c.302.372.339.551.083.397-.256-.153-.546-.053-.645.224-.104.292-.328.354-.534.147-.207-.206-.145-.43.147-.534.277-.099.401-.344.277-.545-.386-.624.094-.402.672.311m210.17-.311c-.124.201 0 .446.277.545.292.104.354.328.147.534-.206.207-.43.145-.534-.147-.099-.277-.389-.377-.645-.224-.256.154-.219-.025.083-.397.578-.713 1.058-.935.672-.311m-192.672 8.794c.302.191.477.562.39.824-.103.309-.426.183-.911-.353-.764-.844-.477-1.103.521-.471m175.023.471c-.485.536-.808.662-.911.353-.087-.262.088-.633.39-.824.998-.632 1.285-.373.521.471m-138.624 13.031c-.241.291-.601.429-.8.306-.503-.311-.109-.835.628-.835.462 0 .504.13.172.529m102.667-.18c.131.131.067.344-.143.474-.21.129-.592-.018-.849-.328-.476-.574.431-.707.992-.146m-103.22 1.85c-.239.25-1.795-.76-1.795-1.165 0-.222.432-.081.961.314.528.396.904.779.834.851m104.028-.499c-1.166.852-1.654.682-.567-.199.519-.421 1.034-.676 1.143-.567.11.109-.149.454-.576.766" fill="#ccbc74"/><path d="M291.6 98.439c-.99.193-2.67.725-3.734 1.182-1.064.457-3.31 1.094-4.992 1.416-2.328.445-3.347.858-4.266 1.73-.664.63-1.642 1.276-2.173 1.437-1.127.34-5.235 4.29-5.235 5.033 0 .278-.608 1.063-1.351 1.744-1.036.949-1.471 1.794-1.869 3.628-.285 1.315-.878 2.913-1.318 3.55-2.791 4.041-.298 12.053 4.538 14.588 3.155 1.654 7.517 2.138 10.2 1.132 6.138-2.302 7.962-3.132 8.469-3.856.317-.453.831-.823 1.143-.823.929 0 4.196-3.553 5.007-5.443.414-.966.934-1.757 1.157-1.757.682 0 1.572-2.17 2.008-4.901.229-1.431.853-3.569 1.387-4.751 1.902-4.208 2.04-12.162.237-13.622-.995-.806-5.784-.955-9.208-.287m8.959 1.127c1.341 1.113 1.15 6.715-.377 11.034-.311.88-.929 3.377-1.374 5.548-.644 3.14-1.055 4.228-2.009 5.314-.659.751-1.199 1.608-1.199 1.905 0 .764-3.007 3.891-5.6 5.823-7.504 5.592-20.166 5.252-22.002-.59-.276-.88-.634-1.78-.796-2-1.472-2.004.619-12.517 2.98-14.981.581-.606 1.363-1.645 1.737-2.309.8-1.417 4.669-4.91 5.439-4.91.293 0 1.199-.53 2.013-1.177.922-.733 2.34-1.345 3.755-1.622 1.251-.245 3.904-.895 5.896-1.445 6.125-1.691 9.974-1.888 11.537-.59m-49.328 8.239c-.972.303-2.195 1.011-2.716 1.573-.521.562-1.219 1.022-1.551 1.022-1.41 0-3.351 1.388-6.992 5-2.355 2.336-4.388 5.178-4.791 6.694-.249.938-.801 2.082-1.226 2.542-1.198 1.294-1.555 3.167-1.555 8.164s.357 6.87 1.555 8.164c.425.46.986 1.635 1.245 2.612.827 3.115 5.245 7.29 7.357 6.953 3.38-.541 11.043-8.239 11.043-11.095 0-.333.356-.796.791-1.029 1.097-.587 1.514-1.5 2.221-4.86.336-1.599.851-3.186 1.143-3.526 1.883-2.191 2.73-19.601 1.056-21.719-1.015-1.285-4.348-1.503-7.58-.495m7.26 1.14c1.4 1.732.733 15.677-.93 19.436-.434.981-1.076 3.045-1.426 4.585-.396 1.743-1.147 3.544-1.986 4.763-.742 1.078-1.349 2.189-1.349 2.467 0 2.065-7.455 8.779-10.242 9.225-1.783.285-6.208-3.661-6.798-6.063-.157-.637-.842-2.227-1.523-3.534-1.852-3.556-1.833-10.319.039-14.224.686-1.43 1.363-2.992 1.504-3.471.771-2.626 7.676-9.589 10.899-10.991 1.057-.46 2.236-1.112 2.62-1.448 2.326-2.036 7.791-2.479 9.192-.745M219.778 132.1c-.602.714-1.599 1.606-2.217 1.982-.617.375-1.387 1.196-1.712 1.822-.324.627-1.044 1.348-1.601 1.601-.627.286-1.334 1.212-1.862 2.439-.468 1.087-1.279 2.38-1.803 2.872-.655.615-1.165 1.849-1.629 3.94-.371 1.674-1.031 3.729-1.466 4.565-1.011 1.944-.853 8.864.252 11.08.374.748.887 2.619 1.141 4.158.358 2.167.743 3.117 1.709 4.219.686.782 1.556 1.914 1.933 2.516.378.601 1.18 1.209 1.782 1.351.602.142 1.692.617 2.421 1.055 1.245.748 1.418.759 2.8.172.811-.344 1.916-.75 2.456-.902 1.228-.345 4.63-3.74 5.027-5.017.164-.524.878-1.601 1.588-2.392 3.206-3.574 3.096-25.022-.146-28.518-.43-.463-1.077-1.865-1.437-3.115-.832-2.888-1.866-4.194-3.732-4.712-2.134-.593-2.297-.552-3.504.884m4.011.413c1.233.698 1.757 1.348 2.334 2.894.409 1.096 1.276 3.073 1.926 4.393 3.116 6.326 3.076 23.535-.063 27.343-.652.792-1.186 1.671-1.186 1.953 0 .687-3.54 4.436-4.8 5.083-2.98 1.531-7.106.841-9.005-1.507a80.766 80.766 0 0 0-1.977-2.342c-.555-.625-1.141-2.036-1.413-3.4-.255-1.281-.632-2.96-.837-3.73-1.403-5.258-.14-17.088 2.077-19.447.46-.49 1.252-1.76 1.759-2.822.508-1.062 2.037-3.011 3.399-4.331a231.665 231.665 0 0 0 3.737-3.698c1.49-1.535 1.948-1.579 4.049-.389m50.976 8.292c-1.009.17-2.841.786-4.07 1.367-1.228.582-3.347 1.253-4.708 1.493-1.679.296-2.878.785-3.73 1.522-.692.598-1.854 1.29-2.585 1.539-3.165 1.078-9.042 7.528-9.991 10.967-.507 1.834 3.432 6.204 6.363 7.06.966.282 2.461.993 3.322 1.58 2.255 1.536 13.768 1.658 15.783.168.669-.495 2.173-1.257 3.343-1.695 1.763-.66 4.659-2.825 6.508-4.867.22-.243 1.098-1.153 1.951-2.022.853-.87 1.901-2.503 2.329-3.63.428-1.127 1.201-2.441 1.717-2.919 2.083-1.931 2.583-8.697.749-10.139-1.129-.888-12.553-1.174-16.981-.424m16.401.964c1.706 1.544 1.383 6.641-.567 8.959-.518.616-1.391 2.099-1.94 3.296-.926 2.019-3.162 4.607-6.864 7.945-.834.752-2.784 1.884-4.332 2.514-1.548.63-3.006 1.293-3.239 1.473-1.733 1.342-8.915 1.628-12.024.479-7.517-2.777-7.947-3.011-10.048-5.471l-1.75-2.047.769-2.359c.894-2.746 6.065-8.07 9.122-9.392.931-.402 2.205-1.11 2.831-1.573.627-.463 2.745-1.261 4.707-1.772 1.963-.511 4.252-1.226 5.086-1.588 3.557-1.543 16.688-1.877 18.249-.464m-94.944 14.933c-1.46.144-6.622 4.459-6.622 5.535 0 .157-.7.933-1.555 1.724-.97.898-1.754 2.103-2.083 3.203-.29.971-.928 2.165-1.417 2.654-2.663 2.663-2.803 21.252-.183 24.307.601.701 1.314 1.815 1.584 2.475 1.501 3.665 6.429 5.459 10.526 3.833 1.183-.469 4.728-3.897 4.728-4.572 0-.281.524-.898 1.165-1.372.933-.69 1.294-1.431 1.818-3.735.36-1.581.984-3.295 1.388-3.808 1.576-2.003 1.366-11.495-.341-15.411-.416-.954-.958-3.061-1.204-4.682-.478-3.147-.822-4.024-2.252-5.743-.498-.6-1.023-1.623-1.166-2.273-.413-1.881-1.518-2.419-4.386-2.135m2.839.804c.254.162.936 1.368 1.516 2.68.581 1.313 1.307 2.665 1.615 3.006.599.661.823 1.508 2.396 9.074 1.196 5.748 1.354 11.344.388 13.647-.344.818-.862 2.61-1.151 3.983-.554 2.633-1.412 3.918-5.181 7.768-3.86 3.943-8.934 3.708-11.491-.532a62.56 62.56 0 0 0-1.843-2.855c-1.473-2.114-1.658-2.83-2.137-8.247-.681-7.695.063-13.55 2.01-15.83.376-.44.998-1.653 1.382-2.696.706-1.917 1.6-3.041 6.142-7.721 2.538-2.614 4.642-3.368 6.354-2.277m38.034 12.298c-2.439.41-3.399.78-4.474 1.724-.753.661-1.785 1.33-2.295 1.487-1.504.464-4.372 3.657-5.815 6.474l-1.343 2.622.976 1.444c.537.795 1.098 1.857 1.248 2.36.149.503.977 1.361 1.84 1.905.862.545 1.568 1.163 1.568 1.375 0 .627 2.021 1.456 4.8 1.969 1.43.265 3.23.782 4 1.15 2.025.968 10.032.966 12-.004.77-.379 2.649-.976 4.175-1.326 3.053-.7 4.259-1.22 4.746-2.045.177-.3 1.03-.906 1.895-1.347.865-.441 1.876-1.266 2.248-1.834.372-.567 1.099-1.192 1.616-1.388.517-.197 1.308-.982 1.759-1.746.45-.764 1.171-1.5 1.601-1.637 3.712-1.178 1.561-6.832-2.957-7.77-1.229-.255-2.65-.786-3.159-1.181-1.759-1.365-2.728-1.658-7.415-2.242-5.664-.707-12.776-.702-17.014.01m15.481.401c3.927.459 5.561.831 6.797 1.545.895.517 2.813 1.33 4.263 1.806 4.719 1.551 6.27 4.278 3.857 6.78-7.046 7.307-9.954 9.198-16.341 10.625-5.593 1.25-8.003 1.29-14.09.233-6.193-1.075-7.231-1.545-10.414-4.708-3.685-3.662-1.375-10.178 4.74-13.364.873-.455 2.05-1.17 2.615-1.587 2.392-1.769 10.102-2.321 18.573-1.33m-82.409 12.192c-1.855.914-6.967 5.549-6.967 6.315 0 .177-.612.97-1.359 1.763-.818.867-1.611 2.306-1.991 3.612-.347 1.195-.985 2.492-1.416 2.882-2.207 1.997-2.316 17.226-.145 20.17.431.583 1.102 2.024 1.493 3.201.525 1.585 1.04 2.336 1.982 2.892.7.413 1.665 1.281 2.144 1.929.709.959 1.27 1.229 3.007 1.446 3.287.41 4.184-.112 9.287-5.407.53-.55 1.247-1.805 1.594-2.789.347-.983.968-2.153 1.379-2.6 2.262-2.453 2.35-19.552.116-22.574-.442-.597-1.023-2.154-1.292-3.461-.574-2.793-.898-3.477-2.584-5.457-2.478-2.913-2.915-3.073-5.248-1.922m4.348 2.103c2.222 2.627 2.48 3.138 3.087 6.1.27 1.32.837 3.082 1.261 3.916 2.029 3.997 2.061 15.695.053 19.893-.682 1.425-1.373 3.04-1.536 3.59-.424 1.428-3.992 5.401-6.113 6.806-2.64 1.749-4.669 1.66-6.99-.305a247.971 247.971 0 0 0-2.577-2.155c-.443-.361-1.201-1.844-1.684-3.296-.483-1.452-1.039-2.74-1.236-2.862-1.723-1.064-1.775-14.314-.071-17.891.654-1.373 1.406-3.17 1.671-3.995.265-.824 1.097-2.236 1.851-3.138.753-.901 1.369-1.796 1.369-1.989 0-.722 5.007-5.306 6.571-6.017 2.274-1.032 2.356-1.007 4.344 1.343m39.285 9.842c-.88.398-2.913 1.122-4.517 1.608-1.814.549-3.241 1.256-3.772 1.867-.471.541-1.074.983-1.341.983-.267 0-.91.455-1.428 1.01a426.86 426.86 0 0 1-2.242 2.38c-1.284 1.353-1.581 2.645-1.4 6.092.12 2.304 4.391 6.936 7.476 8.109 5.169 1.965 21.845 1.286 24.562-1.001.614-.516 1.871-1.24 2.794-1.609.923-.37 2.044-1.186 2.491-1.813.447-.628 1.298-1.374 1.891-1.658.593-.285 1.323-1.026 1.621-1.648.298-.622 1.068-1.314 1.712-1.538 3.21-1.119 2.484-7.924-.845-7.924-.38 0-1.379-.467-2.22-1.038-1.979-1.343-2.863-1.664-5.938-2.155-1.395-.223-3.916-.856-5.602-1.406-3.951-1.29-10.675-1.421-13.242-.259m15.691 1.629c3.489.726 6.351 1.563 7.4 2.162.94.538 2.429 1.201 3.309 1.473 5.323 1.647 4.372 4.466-3.926 11.642-8.828 7.634-27.217 8.117-34.144.897-4.723-4.924-2.929-10.094 5.101-14.702.93-.534 6.654-2.271 9.169-2.783 1.984-.404 7.512.15 13.091 1.311m-85.179 11.668c-.502.681-1.396 1.491-1.988 1.798-.592.307-1.387 1.084-1.766 1.727-.38.642-1.103 1.356-1.608 1.586-.504.23-1.309 1.19-1.788 2.134-.479.944-1.295 2.223-1.813 2.843-.518.619-1.225 2.149-1.571 3.4-.346 1.25-1.091 3.338-1.656 4.639-1.308 3.016-1.202 10.308.197 13.434.442.99 1.022 2.872 1.288 4.182.34 1.672.808 2.685 1.572 3.4.598.56 1.294 1.404 1.545 1.875.252.471 1.703 1.489 3.224 2.262l2.766 1.405 2.605-1.262c2.716-1.315 5.888-4.375 6.478-6.247.171-.541.805-1.478 1.409-2.083 1.202-1.202 1.357-1.807 1.99-7.759.747-7.023-.671-18.907-2.381-19.964-.215-.133-.753-1.457-1.195-2.943-1.445-4.85-5.284-7.176-7.308-4.427m3.91.64c1.754 1.11 2.643 2.486 3.177 4.917.168.766.814 2.385 1.436 3.598 2.715 5.303 2.599 22.105-.177 25.494-.502.611-1.134 1.666-1.405 2.344-1.216 3.036-7.858 7.45-9.388 6.24-.256-.202-1.126-.581-1.934-.841-1.256-.404-4.146-3.191-5.228-5.042-3.276-5.605-2.684-21.565.977-26.293.64-.827 1.42-2.087 1.732-2.8.763-1.744 7.722-8.654 8.746-8.685.197-.006 1.126.475 2.064 1.068m39.106 11.283c-.7.179-2.125.891-3.169 1.582-1.043.691-2.239 1.256-2.658 1.256-.42 0-1.303.54-1.963 1.2-.66.66-1.352 1.2-1.538 1.2-.187 0-.758.546-1.27 1.214a43.353 43.353 0 0 1-2.024 2.408c-2.101 2.292-2.029 5.685.165 7.801.731.704 1.63 1.722 1.998 2.262.367.54 1.537 1.313 2.6 1.716 1.062.403 2.388 1.069 2.948 1.48 2.239 1.644 16.94 2.135 19.783.662 3.098-1.606 3.724-1.913 5.513-2.702 1.052-.464 2.019-1.12 2.149-1.459.13-.339.942-.976 1.803-1.415.862-.44 1.768-1.241 2.014-1.781.246-.54 1.05-1.337 1.788-1.772.737-.435 1.556-1.291 1.82-1.902.265-.612.803-1.541 1.197-2.066 1.116-1.487.913-1.879-2.184-4.204-2.167-1.626-3.557-2.34-5.5-2.822-1.43-.356-3.581-1.13-4.781-1.722-2.306-1.137-15.356-1.791-18.691-.936m17.261 1.423a120.37 120.37 0 0 0 5.211 1.611c2.26.627 6.797 3.196 7.821 4.429.644.776-.706 4.47-1.947 5.331-.51.354-1.695 1.364-2.633 2.244-3.158 2.962-5.124 4.321-7.868 5.438-1.501.611-3.103 1.311-3.56 1.555-4.714 2.523-22.192-.014-24.176-3.508-.2-.352-1.053-1.388-1.895-2.301-2.199-2.386-2.268-4.638-.217-7.065 2.461-2.913 5.879-5.919 6.73-5.919.208 0 1.576-.56 3.04-1.244 4.807-2.248 13.736-2.509 19.494-.571M161.72 245.26c-2.165.309-3.153.664-3.978 1.428-.603.56-1.729 1.282-2.502 1.605-1.507.629-5.64 4.57-5.64 5.377 0 .268-.486 1.189-1.081 2.047-1.042 1.504-1.057 1.596-.41 2.621.369.584 1.024 1.815 1.456 2.736.431.921 1.291 1.998 1.91 2.393.619.396 1.358 1.035 1.644 1.42.285.386 1.545.981 2.8 1.322a48.897 48.897 0 0 1 4.481 1.505c3.037 1.223 12.197 1.313 14.4.142.77-.41 2.616-1.067 4.102-1.461 1.71-.453 3.211-1.162 4.084-1.929.76-.667 1.994-1.504 2.742-1.859.749-.355 1.555-1.072 1.793-1.593.237-.521.936-1.189 1.552-1.484.616-.296 1.361-1.041 1.657-1.657.295-.616.952-1.31 1.459-1.541 3.57-1.626 1.346-6.293-3.684-7.732-1.268-.362-2.955-1.103-3.748-1.645-2.471-1.686-16.083-2.688-23.037-1.695m14.111.378c2.403.241 4.999.677 5.769.968 13.253 5.011 13.956 6.107 7.65 11.919-.523.481-1.64 1.55-2.484 2.375-.844.825-1.708 1.5-1.92 1.5-.211 0-1.254.664-2.315 1.475-8.978 6.858-28.577 4.342-32.832-4.215l-1.125-2.26 1.213-2.462c1.259-2.554 3.703-5.049 6.213-6.341.77-.397 1.866-1.065 2.435-1.486 2.235-1.653 9.483-2.266 17.396-1.473m-48.672 14.558c-2.492 1.57-3.559 2.54-3.559 3.234 0 .27-.633.864-1.406 1.321-.774.456-1.574 1.269-1.778 1.807-.204.537-.875 1.218-1.49 1.513-.615.295-1.355 1.03-1.645 1.634-.289.604-1.053 1.37-1.697 1.703-.644.333-1.436 1.12-1.761 1.748-.325.628-.949 1.236-1.387 1.35-.438.115-1.147.786-1.576 1.491-.429.706-1.322 1.613-1.984 2.015-.663.403-1.319 1.092-1.458 1.531-.139.44-.894 1.177-1.676 1.638-.782.462-1.517 1.203-1.633 1.647-.117.445-.924 1.171-1.794 1.615-1.518.775-3.833 4.483-3.447 5.521.073.195 2.532 2.821 5.465 5.836l5.333 5.481 1.724-.259c1.782-.267 4.61-2.477 4.61-3.602 0-.297.648-.923 1.44-1.391.792-.467 1.531-1.198 1.643-1.625.112-.427.816-1.138 1.566-1.58.75-.442 1.537-1.262 1.75-1.821.213-.56.844-1.191 1.404-1.404.559-.213 1.379-1 1.821-1.75.442-.75 1.149-1.453 1.57-1.563.421-.11 1.117-.778 1.546-1.483.429-.706 1.322-1.613 1.984-2.015.663-.403 1.319-1.092 1.458-1.531.139-.44.878-1.168 1.642-1.618.764-.451 1.555-1.258 1.759-1.795.204-.537.723-1.087 1.154-1.224 3.399-1.079 5.416-5.957 3.301-7.984-.664-.636-1.356-1.883-1.614-2.907-.591-2.346-1.796-3.49-4.506-4.277-1.217-.354-2.447-.926-2.733-1.27-1.157-1.395-1.794-1.393-4.026.014m4.235.767a97.552 97.552 0 0 0 3.509 1.595c1.5.631 3.093 2.639 3.096 3.904 0 .364.631 1.417 1.402 2.339l1.401 1.677-1.101 2.001c-.606 1.101-1.725 2.478-2.489 3.061-.763.583-2.425 2.14-3.694 3.46-1.268 1.32-2.612 2.67-2.987 3a21.155 21.155 0 0 0-1.506 1.54 20.054 20.054 0 0 1-1.586 1.6c-.419.363-1.992 1.92-3.497 3.46-1.504 1.54-3.04 3.07-3.413 3.4a21.373 21.373 0 0 0-1.504 1.54 20.052 20.052 0 0 1-1.585 1.6c-.932.809-1.594 1.525-2.751 2.974-.582.73-1.594 1.299-2.931 1.649l-2.041.534-4.901-4.961c-5.846-5.918-6.201-8.002-1.804-10.596.744-.439 1.463-1.147 1.599-1.573.135-.427.77-1.047 1.411-1.378.64-.331 1.446-1.147 1.79-1.813.345-.666 1.081-1.418 1.637-1.671.556-.254 1.271-.963 1.588-1.576.317-.614 1.075-1.373 1.684-1.688.609-.315 1.34-1.008 1.624-1.539.285-.532 1.045-1.278 1.688-1.658.644-.38 1.427-1.186 1.739-1.79.312-.604 1.023-1.305 1.579-1.559.556-.253 1.274-.969 1.596-1.592.321-.622 1.05-1.38 1.619-1.685.569-.305 1.366-1.114 1.769-1.798.575-.974 3.762-3.196 4.859-3.386.106-.019 1.096.399 2.2.929" fill="#dcd4a2"/><path d="M294.622 98.865c-1.088.16-3.608.741-5.6 1.291-1.992.55-4.645 1.2-5.896 1.445-1.415.277-2.833.889-3.755 1.622-.814.647-1.72 1.177-2.013 1.177-.77 0-4.639 3.493-5.439 4.91-.374.664-1.156 1.703-1.737 2.309-2.361 2.464-4.452 12.977-2.98 14.981.162.22.52 1.12.796 2 1.836 5.842 14.498 6.182 22.002.59 2.593-1.932 5.6-5.059 5.6-5.823 0-.297.54-1.154 1.199-1.905.954-1.086 1.365-2.174 2.009-5.314.445-2.171 1.063-4.668 1.374-5.548 1.527-4.319 1.718-9.921.377-11.034-.859-.713-3.631-1.041-5.937-.701m3.788 1.94c2.047 1.044 2.319 2.158 1.247 5.104-.459 1.26-1.115 4.271-1.458 6.691-.716 5.05-1.18 6.72-2.074 7.462-.349.29-.954 1.249-1.344 2.132-.685 1.548-4.12 5.406-4.815 5.406-.186 0-.936.525-1.667 1.167-3.172 2.785-16.326 3.696-18.438 1.278-2.183-2.501-1.174-16.3 1.288-17.618.433-.231 1-1.066 1.26-1.855.27-.819.964-1.732 1.617-2.129.628-.382 1.512-1.165 1.963-1.738.451-.574 1.345-1.159 1.985-1.299.64-.141 1.978-.795 2.973-1.454 1.5-.994 2.781-1.36 7.535-2.152 3.15-.526 6.175-1.134 6.723-1.352 1.382-.552 1.435-.546 3.205.357m-46.311 7.542c-1.155.402-2.415 1.006-2.8 1.343-.384.336-1.563.988-2.62 1.448-3.223 1.402-10.128 8.365-10.899 10.991-.141.479-.818 2.041-1.504 3.471-1.872 3.905-1.891 10.668-.039 14.224.681 1.307 1.366 2.897 1.523 3.534.59 2.402 5.015 6.348 6.798 6.063 2.787-.446 10.242-7.16 10.242-9.225 0-.278.607-1.389 1.349-2.467.839-1.219 1.59-3.02 1.986-4.763.35-1.54.992-3.604 1.426-4.585 1.663-3.759 2.33-17.704.93-19.436-1.011-1.252-3.77-1.51-6.392-.598m5.654 1.259c.719.693-.003 13.215-.89 15.436-.449 1.123-1.095 3.643-1.435 5.6-.453 2.602-.929 3.998-1.773 5.197-.634.902-1.364 2.279-1.622 3.06-.926 2.807-7.105 8.596-9.356 8.766-2.138.161-5.493-2.869-6.099-5.508-.392-1.708-1.341-4.54-1.821-5.437-.633-1.184-.523-6.834.159-8.179.319-.627.862-2.269 1.207-3.648.475-1.9 1.068-3.011 2.452-4.593 1.004-1.147 1.825-2.206 1.825-2.353 0-.669 6.595-5.925 7.738-6.167.694-.147 1.838-.701 2.543-1.23 2.259-1.696 5.8-2.169 7.072-.944m-38.013 23.296c-.694.714-2.375 2.378-3.737 3.698-1.362 1.32-2.891 3.269-3.399 4.331-.507 1.062-1.299 2.332-1.759 2.822-2.217 2.359-3.48 14.189-2.077 19.447.205.77.582 2.449.837 3.73.272 1.364.858 2.775 1.413 3.4a80.766 80.766 0 0 1 1.977 2.342c1.899 2.348 6.025 3.038 9.005 1.507 1.26-.647 4.8-4.396 4.8-5.083 0-.282.534-1.161 1.186-1.953 3.139-3.808 3.179-21.017.063-27.343-.65-1.32-1.517-3.297-1.926-4.393-1.302-3.487-4.291-4.659-6.383-2.505m5.111 2.189c.216.216.658 1.544.982 2.951.323 1.407.944 3.046 1.379 3.643 1.322 1.815 1.758 4.894 1.773 12.515.017 8.325-.176 9.575-1.795 11.613-.655.823-1.19 1.832-1.19 2.242 0 1.824-4.633 5.545-6.9 5.543-3.393-.004-5.017-.625-5.661-2.165-.305-.731-.913-1.58-1.352-1.887-2.997-2.099-3.075-25.146-.085-25.146.243 0 .911-1.035 1.483-2.3.573-1.265 1.688-2.961 2.478-3.768.79-.808 1.707-1.754 2.037-2.104.33-.349 1.219-1.149 1.977-1.777l1.376-1.143 1.552.695c.854.382 1.729.871 1.946 1.088m52.466 6.126c-1.586.197-3.566.654-4.4 1.016-.834.362-3.123 1.077-5.086 1.588-1.962.511-4.08 1.309-4.707 1.772-.626.463-1.9 1.171-2.831 1.573-3.057 1.322-8.228 6.646-9.122 9.392l-.769 2.359 1.75 2.047c2.101 2.46 2.531 2.694 10.048 5.471 3.109 1.149 10.291.863 12.024-.479.233-.18 1.691-.843 3.239-1.473 1.548-.63 3.498-1.762 4.332-2.514 3.702-3.338 5.938-5.926 6.864-7.945.549-1.197 1.422-2.68 1.94-3.296 1.95-2.318 2.273-7.415.567-8.959-.961-.87-8.779-1.181-13.849-.552m13.167 1.507c.897.897.636 5.066-.397 6.345-.502.622-1.369 2.108-1.926 3.301-.557 1.194-1.811 3.058-2.787 4.143-.976 1.086-1.774 2.122-1.774 2.303 0 .182-.315.433-.7.558-.385.125-1.332.828-2.104 1.561-1.823 1.732-2.694 2.177-6.131 3.129-1.566.434-3.031.94-3.256 1.124-.726.595-4.762.882-6.409.457-.88-.228-2.68-.77-4-1.206-1.32-.435-2.911-.9-3.535-1.032-.624-.132-2.019-1.067-3.1-2.078-2.982-2.79-2.764-4.833.899-8.421 3.902-3.822 5.133-4.807 6.296-5.04.635-.127 1.991-.762 3.015-1.411 1.28-.812 2.984-1.387 5.457-1.841 1.977-.364 4.354-.945 5.282-1.292 3.599-1.347 14.011-1.759 15.17-.6M7.313 147.046c.159.159-.011.62-.376 1.024-.965 1.066-.496 1.135.521.077.753-.783.779-.924.213-1.141-.356-.137-.517-.118-.358.04m384.882.06c-.25.181-.058.634.5 1.18.498.487.905.734.905.549 0-.186-.268-.559-.596-.831-.327-.272-.497-.654-.376-.849.264-.428.113-.445-.433-.049m-199.488 12.677c-4.542 4.68-5.436 5.804-6.142 7.721-.384 1.043-1.006 2.256-1.382 2.696-1.947 2.28-2.691 8.135-2.01 15.83.479 5.417.664 6.133 2.137 8.247a62.56 62.56 0 0 1 1.843 2.855c2.557 4.24 7.631 4.475 11.491.532 3.769-3.85 4.627-5.135 5.181-7.768.289-1.373.807-3.165 1.151-3.983.966-2.303.808-7.899-.388-13.647-1.573-7.566-1.797-8.413-2.396-9.074-.308-.341-1.034-1.693-1.615-3.006-1.24-2.805-1.446-2.972-3.67-2.98-1.559-.006-1.889.197-4.2 2.577m6.746.792c.276 1.086.874 2.436 1.328 3 3.576 4.439 3.872 25.952.404 29.318-.62.601-1.231 1.423-1.36 1.827-.128.404-1.197 1.567-2.376 2.585-3.91 3.375-7.619 2.468-10.249-2.505-.55-1.04-1.316-2.336-1.703-2.88-2.001-2.813-1.917-17.379.115-19.92.843-1.055 1.189-1.732 2.036-3.986.286-.763 1.203-2.09 2.036-2.949.834-.859 1.516-1.8 1.516-2.091 0-.291.548-.852 1.217-1.248.67-.395 1.57-1.316 2-2.044.731-1.239.905-1.318 2.658-1.204l1.877.122.501 1.975m38.562 9.656c-1.642.299-3.447.886-4.012 1.304-.565.417-1.742 1.132-2.615 1.587-6.115 3.186-8.425 9.702-4.74 13.364 6.38 6.341 22.99 7.348 31.552 1.913 2.822-1.791 5.415-4.041 9.293-8.063 2.413-2.502.862-5.229-3.857-6.78-1.45-.476-3.368-1.289-4.263-1.806-3.119-1.803-15.121-2.656-21.358-1.519m14.256.995c1.825.249 4.129.898 5.529 1.559 1.32.622 3.35 1.35 4.51 1.616 3.479.798 6.338 4.193 4.309 5.117-.539.246-1.262.992-1.607 1.658-.344.666-1.161 1.487-1.815 1.826-.654.338-1.477 1.054-1.829 1.591-.352.537-1.028 1.091-1.504 1.232-.475.142-1.944.941-3.264 1.777-5.645 3.575-22.417 3.718-26.2.223-.55-.508-1.529-1.171-2.176-1.474-2.612-1.223-2.531-8.492.103-9.328.401-.127 1.11-.747 1.576-1.377.466-.631 1.354-1.272 1.972-1.425.619-.153 1.972-.819 3.008-1.48 2.913-1.861 10.194-2.495 17.388-1.515m-82.1 11.931c-1.564.711-6.571 5.295-6.571 6.017 0 .193-.616 1.088-1.369 1.989-.754.902-1.586 2.314-1.851 3.138-.265.825-1.017 2.622-1.671 3.995-1.704 3.577-1.652 16.827.071 17.891.197.122.753 1.41 1.236 2.862.483 1.452 1.241 2.935 1.684 3.296.442.36 1.602 1.33 2.577 2.155 2.321 1.965 4.35 2.054 6.99.305 2.121-1.405 5.689-5.378 6.113-6.806.163-.55.854-2.165 1.536-3.59 2.008-4.198 1.976-15.896-.053-19.893-.424-.834-.991-2.596-1.261-3.916-.607-2.962-.865-3.473-3.087-6.1-1.988-2.35-2.07-2.375-4.344-1.343m4.828 3.913c.716.885 1.198 2.221 1.587 4.4.308 1.722.972 4.39 1.476 5.93 1.325 4.049 1.358 12.337.061 15-.483.99-1.099 2.7-1.37 3.8-.501 2.035-3.967 6.6-5.011 6.6-.264 0-1.033.465-1.708 1.033-1.494 1.257-2.878 1.08-5.048-.644-.801-.637-1.755-1.253-2.121-1.369-2.281-.726-5.636-19.602-3.697-20.801.423-.261 1.404-2.829 2.035-5.324.237-.938.939-2.288 1.56-3 .621-.712 1.511-2.047 1.976-2.966.466-.919 1.223-1.79 1.682-1.936.459-.145 1.175-.825 1.592-1.51.456-.751 1.439-1.522 2.472-1.94l1.715-.694.886 1.075c.487.592 1.348 1.648 1.913 2.346m41.401 7.59c-7.146 1.454-10.835 3.218-14.393 6.885-10.245 10.556 13.25 21.092 28.993 13.001 3.661-1.882 4.908-2.822 9.574-7.222 3.901-3.677 3.767-6.437-.374-7.718-.88-.272-2.369-.935-3.309-1.473-3.177-1.817-17.063-4.171-20.491-3.473m9.831 2.166c5.27.514 7.022.94 8.923 2.169.795.514 2.483 1.16 3.751 1.435 3.642.789 4.394 3.545 1.495 5.477-.77.514-1.569 1.298-1.774 1.743-.206.445-1.07 1.164-1.92 1.598-.85.433-1.647 1.054-1.772 1.379-.394 1.027-8.276 4.596-11.028 4.995-5.914.855-13.951.161-16.306-1.409-.77-.513-1.771-1.042-2.225-1.176-1.88-.554-4.975-4.494-4.972-6.329.003-1.848 3.144-5.863 5.057-6.466.472-.148 1.282-.688 1.8-1.199 2.287-2.258 9.685-3.122 18.971-2.217M144.2 208.603c-3.187 2.752-6.233 6.025-6.788 7.293-.312.713-1.092 1.973-1.732 2.8-3.661 4.728-4.253 20.688-.977 26.293 1.082 1.851 3.972 4.638 5.228 5.042.808.26 1.678.639 1.934.841 1.53 1.21 8.172-3.204 9.388-6.24.271-.678.903-1.733 1.405-2.344 2.776-3.389 2.892-20.191.177-25.494-.622-1.213-1.268-2.832-1.436-3.598-.534-2.431-1.423-3.807-3.177-4.917-2.125-1.344-2.086-1.347-4.022.324m3.719 1.403c1.182.571 1.741 1.126 1.915 1.9.704 3.128 1.132 4.447 1.991 6.143 2.489 4.912 2.501 19.546.019 22.893-.513.692-1.129 1.844-1.369 2.56-.239.716-1.364 2.246-2.5 3.4L145.91 249h-3.194c-3.042 0-3.235-.054-4.055-1.137a29.037 29.037 0 0 0-2.034-2.329c-3.222-3.272-3.345-22.121-.169-25.739.632-.72 1.514-2.135 1.962-3.146.447-1.011 1.175-2.032 1.618-2.269.443-.237 1.131-.967 1.529-1.622.602-.991 3.671-3.418 4.458-3.527.124-.017.976.332 1.894.775m41.659 9.969c-1.002.185-3.019.896-4.483 1.581-1.464.684-2.832 1.244-3.04 1.244-.851 0-4.269 3.006-6.73 5.919-2.051 2.427-1.982 4.679.217 7.065.842.913 1.695 1.949 1.895 2.301 1.984 3.494 19.462 6.031 24.176 3.508.457-.244 2.059-.944 3.56-1.555 2.744-1.117 4.71-2.476 7.868-5.438.938-.88 2.123-1.89 2.633-2.244 1.241-.861 2.591-4.555 1.947-5.331-1.024-1.233-5.561-3.802-7.821-4.429a120.37 120.37 0 0 1-5.211-1.611c-3.138-1.056-11.653-1.629-15.011-1.01m13.022 2.199c2.2.519 5.051 1.175 6.336 1.457 1.351.297 2.936.99 3.755 1.642.781.62 1.636 1.127 1.902 1.127 2.4 0 1.941 4.2-.638 5.828-.82.518-1.609 1.312-1.752 1.764-.144.452-.899 1.088-1.678 1.413-.779.326-2.016 1.119-2.75 1.763-.841.739-2.631 1.565-4.854 2.241-1.937.589-3.74 1.249-4.007 1.468-.903.739-9.945.422-12.455-.437a192.17 192.17 0 0 0-5.147-1.653c-2.035-.62-2.96-1.11-3.135-1.659-.136-.43-.781-1.388-1.434-2.131-1.807-2.058-2.129-3.641-.95-4.665.522-.454 1.167-1.353 1.434-1.998.267-.644.995-1.435 1.617-1.757.622-.321 1.541-1.012 2.043-1.534.832-.865 6.462-2.979 10.313-3.872 2.085-.484 6.889-.061 11.4 1.003m-40.165 23.635c-1.631.295-3.431.881-4 1.302-.569.421-1.665 1.089-2.435 1.486-2.51 1.292-4.954 3.787-6.213 6.341l-1.213 2.462 1.125 2.26c4.255 8.557 23.854 11.073 32.832 4.215 1.061-.811 2.104-1.475 2.315-1.475.212 0 1.076-.675 1.92-1.5.844-.825 1.961-1.894 2.484-2.375 3.339-3.078 4.053-4.058 3.772-5.181-.572-2.277-2.264-3.275-11.422-6.738-3.381-1.279-14.052-1.723-19.165-.797m13.732 1.012c1.664.231 3.855.788 4.87 1.237 1.015.448 3.081 1.158 4.591 1.577 2.214.613 3.1 1.114 4.568 2.582l1.821 1.821-1.309 1.354c-4.304 4.455-5.589 5.573-7.266 6.322-.903.403-2.122 1.192-2.708 1.752-3.28 3.134-23.449 3.228-25.934.122-.33-.413-1.212-1.164-1.961-1.669-2.812-1.898-2.856-7.862-.069-9.304.611-.316 1.41-1.03 1.776-1.588.365-.558 1.157-1.128 1.759-1.267.602-.139 2.06-.784 3.239-1.434 3.434-1.894 9.732-2.464 16.623-1.505m-169.755 4.23c-.007.248.256.673.584.945.327.272.498.652.379.845-.119.192.083.235.448.095.599-.23.602-.29.034-.608-.348-.195-.812-.663-1.032-1.041-.22-.378-.406-.484-.413-.236m386.13.802c-.753.783-.779.924-.213 1.141.356.137.517.118.358-.04-.159-.159.011-.62.376-1.024.965-1.066.496-1.135-.521-.077m-265.507 9.268c-1.081.58-2.296 1.614-2.7 2.299-.403.684-1.2 1.493-1.769 1.798-.569.305-1.298 1.063-1.619 1.685-.322.623-1.04 1.339-1.596 1.592-.556.254-1.267.955-1.579 1.559-.312.604-1.095 1.41-1.739 1.79-.643.38-1.403 1.126-1.688 1.658-.284.531-1.015 1.224-1.624 1.539-.609.315-1.367 1.074-1.684 1.688-.317.613-1.032 1.322-1.588 1.576-.556.253-1.292 1.005-1.637 1.671-.344.666-1.15 1.482-1.79 1.813-.641.331-1.276.951-1.411 1.378-.136.426-.855 1.134-1.599 1.573-4.397 2.594-4.042 4.678 1.804 10.596l4.901 4.961 2.041-.534c1.337-.35 2.349-.919 2.931-1.649 1.157-1.449 1.819-2.165 2.751-2.974a20.052 20.052 0 0 0 1.585-1.6 21.373 21.373 0 0 1 1.504-1.54c.373-.33 1.909-1.86 3.413-3.4 1.505-1.54 3.078-3.097 3.497-3.46a20.054 20.054 0 0 0 1.586-1.6 21.155 21.155 0 0 1 1.506-1.54c.375-.33 1.719-1.68 2.987-3 1.269-1.32 2.931-2.877 3.694-3.46.764-.583 1.883-1.96 2.489-3.061l1.101-2.001-1.401-1.677c-.771-.922-1.402-1.975-1.402-2.339-.003-1.265-1.596-3.273-3.096-3.904a97.552 97.552 0 0 1-3.509-1.595c-2.362-1.134-1.92-1.15-4.359.158m8.408 3.319c.515.484 1.241 1.708 1.614 2.72.372 1.012 1.012 2.218 1.423 2.68.65.732.671.903.159 1.328-.323.268-.705 1.021-.848 1.673-.143.652-.734 1.495-1.313 1.873-.578.377-4.435 4.106-8.569 8.286-4.135 4.18-7.677 7.754-7.871 7.942-4.032 3.894-5.543 5.445-6.038 6.196-.411.626-1.137.984-2.307 1.141l-1.707.228-4.25-4.25-4.251-4.251.358-1.688c.27-1.275.699-1.917 1.757-2.629.77-.517 1.613-1.345 1.873-1.838.26-.494.926-1.104 1.48-1.357.555-.253 1.29-1.004 1.635-1.67.344-.666 1.15-1.482 1.79-1.813.641-.331 1.282-.971 1.425-1.422.143-.45.952-1.256 1.797-1.789.845-.533 1.654-1.339 1.797-1.789.143-.451.795-1.096 1.449-1.435.654-.338 1.396-1.069 1.649-1.625.254-.556.963-1.271 1.576-1.588.614-.317 1.387-1.101 1.718-1.741.331-.641.971-1.282 1.421-1.425.45-.143 1.222-.899 1.717-1.68 1.925-3.041 7.318-3.081 10.516-.077" fill="#e4dcb4"/></g></svg>